<?xml version="1.0" encoding="UTF-8"?>
<svg id="CLUB_LOGOS_KEYLINE" xmlns="http://www.w3.org/2000/svg" viewBox="0 0 215 215">
  <defs>
    <style>
      .cls-1 {
        fill: #00019e;
      }

      .cls-2 {
        fill: #fff;
      }
    </style>
  </defs>
  <path class="cls-1" d="M199.78,132.13c-.04-.09-.11-.16-.21-.2l-11.5-4.43c.21-.79.63-1.92,1.42-3.06l5.93,2.62c.19.08.4.13.6.13.54,0,1.04-.29,1.3-.76.16-.25.62-.99,1-1.97.6-1.54.73-2.92.38-4.09-.36-1.21-1.22-2.15-2.51-2.71l-15.82-7.27s-.06-.03-.1-.05h-.02c-.6-.27-1.74-.61-3.14-.14,0-.49.01-.98.01-1.47,0-1.25-.04-2.54-.12-3.83-.08-1.33-.19-2.7-.34-4.06-.89-8.06-2.77-13.93-3.53-16.08l-.26-.72c-3.1-8.69-5.54-15.55-5.48-23.76.05-6.18,7.76-14.87,10.73-17.7l2.78-2.64-29.29-26.74-2.31,1.52c-5.36,3.53-12.3,5.48-19.54,5.48-7.59,0-14.77-2.11-20.22-5.94l-2.04-1.44-2.04,1.44c-5.45,3.83-12.63,5.94-20.22,5.94s-14.18-1.94-19.54-5.48l-2.31-1.52-26.46,24.16-2.83,2.58,2.77,2.64c2.97,2.83,10.69,11.52,10.74,17.7.06,8.21-2.39,15.07-5.48,23.76l-.26.72c-.77,2.15-2.65,8.02-3.53,16.08-.15,1.36-.27,2.73-.34,4.06-.07,1.29-.11,2.57-.12,3.83,0,.49,0,.98.01,1.46-1.39-.46-2.53-.13-3.12.13h-.02s-.07.04-.1.06l-15.82,7.27c-1.28.56-2.15,1.5-2.51,2.71-.34,1.17-.22,2.54.38,4.09.38.98.83,1.71,1,1.97.26.47.76.76,1.3.76.21,0,.41-.04.6-.13l5.93-2.62c.79,1.15,1.2,2.28,1.42,3.06l-11.5,4.43c-.09.04-.17.11-.21.2-.04.09-.04.19,0,.29l.69,1.74c7.19,18.01,19.39,33.41,35.31,44.53,14.78,10.34,32.1,16.38,50.08,17.48l5.92,5.88c.07.07.17.11.26.11s.19-.04.26-.11l5.92-5.88h0c17.99-1.1,35.3-7.15,50.08-17.48,15.91-11.12,28.12-26.52,35.31-44.53l.69-1.74c.04-.09.04-.2,0-.29ZM64.14,160.47c-10.06-7.03-18.21-16.27-23.89-27.01l2.83-1.02c.09.17.18.34.27.51.63,1.15,1.33,2.28,2.07,3.35.08.11.18.26.3.45l.05.08c12.73,19.13,31.47,31.07,52.78,33.62l3.41,3.41c-13.64-1-26.62-5.58-37.83-13.41ZM150.9,160.47c-11.22,7.83-24.21,12.41-37.85,13.41l3.41-3.42c21.32-2.55,40.06-14.49,52.78-33.62l.05-.08c.13-.19.23-.34.31-.46.74-1.07,1.44-2.2,2.07-3.35.09-.17.18-.34.27-.52l2.84,1.02c-5.68,10.74-13.83,19.98-23.89,27.01Z"/>
  <g>
    <path class="cls-2" d="M198.4,133.88c-7.13,17.88-19.25,33.16-35.04,44.2-14.71,10.28-31.94,16.29-49.84,17.36-.09,0-.18.04-.24.11l-5.75,5.72-5.75-5.72c-.06-.06-.15-.1-.24-.11-17.9-1.07-35.13-7.07-49.84-17.36-15.79-11.04-27.91-26.32-35.04-44.2l-.55-1.39,21.8-8.4c.58-.22,1.17-.03,1.51.47l.02.04c.13.22.44.65.84,1.03.18.58.38,1.14.58,1.7-1.13-.43-1.95-1.51-2.27-1.99l-.08-.11h0c-.04-.05-.1-.09-.17-.09-.03,0-.05,0-.08.02h0s-1.54.6-1.54.6l-.7.27.13.32c.05.12.1.24.15.36.64,1.59,1.34,3.14,2.08,4.67.11.22.22.45.33.67l.71-.25,2.85-1.03c.16.34.32.68.49,1.01l-2.84,1.02-.71.25c.11.22.23.44.35.66,5.74,10.89,13.98,20.25,24.17,27.36,11.56,8.07,24.97,12.72,39.06,13.59l1.2,1.2c-14.75-.68-28.83-5.44-40.91-13.87-12.6-8.8-22.28-20.99-27.98-35.24l-.13-.32-17.37,6.7.13.33c7.05,17.67,19.03,32.78,34.64,43.69,14.7,10.28,31.93,16.22,49.82,17.19l5.1,5.07.25.24,5.35-5.32c17.9-.96,35.12-6.91,49.82-17.19,15.61-10.91,27.59-26.02,34.64-43.69l.13-.33-17.37-6.7-.13.32c-5.71,14.25-15.39,26.44-27.98,35.24-12.09,8.43-26.17,13.19-40.93,13.87l1.2-1.2c14.09-.87,27.51-5.52,39.07-13.59,10.18-7.12,18.43-16.48,24.17-27.36.12-.22.24-.44.35-.66l-.71-.25-2.85-1.02c.17-.33.33-.67.49-1.01l2.86,1.03.71.25c.11-.22.22-.45.33-.67.74-1.53,1.44-3.09,2.08-4.67.05-.12.1-.24.15-.36l.13-.32-.69-.27-1.54-.6h0s-.05-.02-.08-.02c-.07,0-.13.04-.17.09h0s-.08.11-.08.11c-.32.48-1.15,1.57-2.29,2,.2-.56.39-1.12.57-1.69.41-.38.72-.82.86-1.05l.02-.04c.33-.5.93-.69,1.51-.47l21.8,8.4-.55,1.39Z"/>
    <g>
      <g>
        <path class="cls-2" d="M82.85,180.34l1.25,1.09c.86.75,1.3,1.62.95,2.76-.55,1.8-2.32,2.42-4.04,1.91-.82-.25-1.77-.71-2.5-1.24-.18-.12-.22-.23-.19-.34.02-.06.07-.13.12-.2l.65-.91c.08-.11.17-.21.34-.16.06.02.12.05.2.11.55.42,1.21.78,1.85.98.53.16,1.28.08,1.47-.53.14-.48-.16-.83-.5-1.12l-1.45-1.28c-.8-.71-1.19-1.67-.87-2.72.49-1.6,2.37-2.02,3.85-1.58.91.27,1.64.67,2.33,1.24.18.15.22.26.19.37-.01.05-.06.11-.11.17l-.69.86c-.11.14-.21.18-.32.15-.06-.02-.13-.07-.21-.13-.45-.38-1.08-.76-1.59-.91-.5-.15-1.13-.13-1.31.46-.12.4.31.8.58,1.04Z"/>
        <path class="cls-2" d="M75.43,182.61c.2.08.23.26.16.43l-.26.64c-.06.15-.21.24-.38.17l-3.14-1.26c-.18-.07-.25-.26-.2-.39l.27-.66c.09-.22.25-.27.43-.19l.56.22,2.41-5.95-.65-.26c-.2-.08-.23-.26-.16-.43l.26-.64c.06-.15.21-.24.38-.17l3.27,1.31c.18.07.25.26.2.39l-.27.66c-.09.22-.25.27-.43.19l-.66-.26-2.41,5.95.61.24Z"/>
        <path class="cls-2" d="M65.65,171.36c-.23-.12-.27-.29-.14-.52l.45-.86c.1-.2.26-.24.47-.13l5.68,2.95.6.31c.21.11.24.24.16.4,0,.01-.01.02-.02.05l-.58.87c-.15.22-.33.2-.57.07l-2.05-1.07-3.29,6.25c-.13.26-.19.28-.43.16l-1.32-.69c-.25-.13-.25-.17-.12-.42l3.3-6.28-2.14-1.11Z"/>
        <path class="cls-2" d="M63.26,167.86l-1.14-.74c-.21-.14-.38-.09-.55.03l-7.23,5.33c-.05.03-.08.07-.11.12-.06.1-.06.21.06.29l1.26.81c.2.13.37.07.5-.05l1.3-1.03.39.25,1.94,1.26.4.26-.39,1.56c-.06.23-.04.41.23.59l1.24.8c.15.1.29.06.38-.07.03-.04.05-.11.07-.19l1.9-8.72c.04-.18-.02-.36-.24-.5ZM61.19,170.16l-.72,2.61-1.81-1.17,2.1-1.7c.23-.18.44-.36.62-.52h.02c-.07.24-.14.49-.22.78Z"/>
        <path class="cls-2" d="M52.48,167.03l-.86-1.73c-.48-.96-.46-1.99.23-2.84,1.06-1.3,2.97-.98,4.16-.02.74.59,1.26,1.23,1.69,2.03.11.2.11.32.03.41-.03.04-.09.08-.17.12l-.96.54c-.16.09-.26.09-.35.02-.05-.04-.1-.11-.14-.2-.27-.52-.71-1.11-1.13-1.44-.41-.33-.99-.55-1.38-.07-.26.33-.02.86.14,1.18l.75,1.48c.51,1.02.59,1.99-.17,2.91-1.19,1.47-3.07,1.37-4.47.25-.67-.54-1.37-1.32-1.84-2.09-.12-.18-.12-.3-.04-.39.04-.05.11-.09.18-.14l.95-.6c.11-.08.24-.13.37-.02.05.04.09.09.14.18.34.6.82,1.18,1.34,1.6.43.35,1.15.56,1.56.06.31-.39.17-.83-.04-1.23Z"/>
      </g>
      <g>
        <path class="cls-2" d="M43.47,161.32c.17.18.14.37-.03.53l-.74.67c-.21.19-.4.13-.55-.03l-3.39-3.66c-.19-.2-.24-.35.02-.59l6.14-5.62c.17-.16.35-.16.52.02l.9.97c.2.21.2.35-.02.55l-5.13,4.7,2.28,2.45Z"/>
        <path class="cls-2" d="M36.94,154.58c.13.17.07.34-.08.46l-.55.42c-.13.1-.3.1-.42-.05l-2.06-2.67c-.12-.16-.09-.35.03-.44l.56-.43c.19-.14.35-.1.47.05l.37.48,5.12-3.9-.42-.55c-.13-.17-.07-.35.08-.46l.55-.42c.13-.09.3-.1.42.05l2.15,2.78c.12.16.09.35-.03.44l-.56.43c-.19.14-.35.1-.47-.05l-.43-.56-5.12,3.9.4.52Z"/>
        <path class="cls-2" d="M33.09,141.69l-4.36,2.67c-.25.15-.41.09-.54-.13l-.64-1.04c-.16-.26-.17-.4.1-.57l7.11-4.35c.29-.18.43-.08.58.16l.58.94c.14.22.14.38.05.6l-2.43,6.06v.02s4.41-2.69,4.41-2.69c.25-.15.4-.08.54.15l.67,1.08c.18.29.04.41-.15.53l-7.09,4.33c-.29.18-.42.09-.55-.11l-.59-.95c-.12-.2-.15-.42-.06-.64l2.4-6.04v-.02Z"/>
      </g>
      <g>
        <path class="cls-2" d="M107.96,188.49c.21,0,.31.16.31.35v.69c-.01.16-.12.3-.3.3l-3.38-.05c-.2,0-.33-.15-.33-.29v-.71c.01-.24.15-.34.35-.34h.61s.1-6.4.1-6.4h-.7c-.21-.01-.31-.17-.31-.36v-.69c.01-.16.12-.3.31-.3l3.53.05c.2,0,.33.15.32.29v.71c-.01.24-.15.34-.34.34h-.71s-.1,6.4-.1,6.4h.66Z"/>
        <path class="cls-2" d="M101.4,181l-1.02,8.21c-.04.34-.19.39-.43.36l-1.11-.14c-.24-.03-.42-.14-.54-.36l-3.25-5.64h-.03s-.63,5.05-.63,5.05c-.04.29-.18.37-.44.34l-1.22-.15c-.3-.04-.42-.12-.38-.43l1.03-8.24c.04-.34.21-.38.48-.35l1.1.14c.26.03.38.13.5.34l3.25,5.68h.03s.63-5.09.63-5.09c.04-.29.19-.36.45-.33l1.27.16c.34.04.34.23.32.45Z"/>
        <path class="cls-2" d="M113.33,182.94c.03.42.58.64.92.75l1.56.56c1.07.39,1.8,1.04,1.9,2.23.15,1.88-1.27,3.09-3.07,3.24-.85.07-1.9-.02-2.78-.25-.21-.05-.29-.14-.3-.25,0-.07.01-.15.03-.23l.27-1.08c.03-.13.09-.26.26-.27.07,0,.13,0,.23.03.66.2,1.41.29,2.08.24.55-.04,1.22-.39,1.17-1.03-.04-.5-.45-.71-.87-.86l-1.82-.67c-1.01-.37-1.71-1.13-1.8-2.22-.13-1.67,1.47-2.74,3.01-2.86.95-.07,1.77.03,2.63.32.22.08.3.16.31.28,0,.05-.02.12-.04.2l-.33,1.05c-.05.17-.12.25-.24.26-.06,0-.15-.01-.24-.05-.56-.19-1.28-.32-1.82-.28-.53.04-1.1.28-1.05.9Z"/>
        <path class="cls-2" d="M123.96,186.97l.65-.11c.21-.04.34.1.37.28l.12.68c.03.16-.05.32-.23.35l-3.33.58c-.19.03-.35-.09-.37-.23l-.12-.7c-.04-.23.07-.36.27-.39l.6-.1-1.1-6.32-.69.12c-.21.04-.34-.1-.37-.28l-.12-.68c-.03-.16.05-.31.23-.35l3.48-.6c.19-.03.35.09.37.23l.12.7c.04.23-.07.36-.27.39l-.7.12,1.1,6.32Z"/>
      </g>
      <g>
        <path class="cls-2" d="M139.18,179.37c-.85-2.52-2.81-4-5.42-3.13-2.48.83-3.36,3.2-2.46,5.85.9,2.67,2.92,3.97,5.42,3.13,2.35-.78,3.41-3.06,2.46-5.85ZM136.21,183.53c-1.19.4-2.15-.23-2.81-2.19-.62-1.84-.21-3.04.88-3.4,1.19-.4,2.12.19,2.8,2.19.65,1.92.24,3.04-.86,3.41Z"/>
        <path class="cls-2" d="M155.05,176.15c.15.25.14.31-.08.45l-1.28.76c-.24.14-.28.12-.42-.12l-3.65-6.08-2.07,1.23c-.23.13-.38.08-.52-.15l-.5-.83c-.11-.19-.07-.34.14-.46l5.5-3.27.58-.34c.2-.12.34-.08.42.07,0,.01.01.02.03.04l.44.94c.11.24,0,.38-.24.52l-1.99,1.18,3.64,6.06Z"/>
        <path class="cls-2" d="M161.76,170.39l.53-.39c.17-.12.35-.06.46.09l.41.56c.09.13.1.3-.05.41l-2.72,2c-.16.12-.35.08-.44-.04l-.42-.57c-.14-.19-.1-.35.06-.47l.49-.36-3.83-5.16-.56.41c-.17.12-.35.06-.46-.09l-.41-.56c-.09-.13-.1-.3.05-.41l2.84-2.08c.16-.12.35-.08.44.04l.42.57c.14.19.1.35-.06.47l-.57.42,3.83,5.16Z"/>
        <path class="cls-2" d="M165.66,157.34c-.07-.23-.06-.43.16-.62l.68-.62c.19-.18.32-.17.49,0l6.02,5.84s.02.02.03.03c.17.18.16.35-.01.51l-.97.89c-.25.23-.43.16-.69-.1l-3.17-3.2-.02.02,1.77,4.82c.1.26,0,.4-.13.51l-.36.33c-.18.17-.32.24-.59.13l-4.9-1.94-.02.02,3.1,3.45c.25.27.15.41-.05.6l-.79.73c-.22.2-.4.23-.59.02,0-.01-.02-.02-.03-.03l-5.37-6.3c-.2-.24-.17-.41.01-.58l.7-.64c.22-.2.38-.21.64-.1l6.18,2.39.02-.02-2.1-6.12Z"/>
        <path class="cls-2" d="M175.93,152.69l-3.5-2.89c-.2-.17-.16-.34-.01-.52l.83-1c.16-.19.29-.25.51-.08l3.61,2.98c2.28,1.88,2.32,3.88.71,5.81-1.73,2.07-3.65,2.07-5.8.3l-3.62-2.99c-.2-.17-.15-.35,0-.53l.83-1c.16-.19.29-.25.51-.08l3.49,2.89c1.59,1.31,2.5,1.15,3.28.21.74-.89.73-1.82-.84-3.11Z"/>
        <path class="cls-2" d="M179.28,139.86c-.13-.21-.17-.4-.01-.64l.49-.78c.14-.22.27-.25.47-.14l7.35,4.06s.02.01.03.02c.21.13.25.29.12.49l-.7,1.11c-.18.29-.37.26-.69.08l-3.91-2.26v.02s2.97,4.19,2.97,4.19c.17.23.1.39,0,.53l-.26.41c-.13.21-.24.31-.54.28l-5.24-.59v.02s3.88,2.52,3.88,2.52c.31.19.26.36.11.59l-.57.91c-.16.25-.33.32-.56.18-.01,0-.02-.01-.03-.02l-6.84-4.67c-.26-.18-.27-.36-.14-.57l.5-.8c.16-.25.31-.3.59-.27l6.59.69v-.02s-3.64-5.36-3.64-5.36Z"/>
        <path class="cls-2" d="M146.5,174.34c-.29-.63-.81-1.18-1.47-1.46-.92-.38-1.99-.18-3.37.46l-1.86.86c-.27.13-.32.24-.19.53l3.5,7.5c.13.28.3.31.52.21l1.19-.55c.27-.13.3-.28.21-.49l-1.14-2.45c.14-.05.52-.2.67-.27,1.84-.85,2.82-2.44,1.93-4.35ZM143.88,177.24c-.1.04-.49.23-.65.29l-1.2-2.58.58-.27c.9-.41,1.6-.28,2.02.63.4.86.14,1.52-.75,1.93Z"/>
      </g>
    </g>
    <path class="cls-2" d="M37.93,111.01c-.52-.21-.99-.29-1.41-.29-.61,0-1.11.16-1.43.3-.05.02-.07.03-.1.05l-15.84,7.28c-1.08.47-1.8,1.25-2.1,2.24-.37,1.26,0,2.66.36,3.61.36.94.81,1.65.94,1.85.2.35.62.49.97.33l6.48-2.87.18.24c.94,1.28,1.43,2.56,1.69,3.48l1.06-.41c-.27-.92-.75-2.15-1.61-3.41l-.25-.37,7.52-3.32c.36-.16.54-.58.4-.94l-.13-.3c-.62-1.41-.85-2.89-.62-4.15.19-1.09.71-1.91,1.42-2.27l.09-.04c.31-.13.62-.2.94-.2.49,0,.99.16,1.49.45-.02-.42-.04-.85-.05-1.28ZM19.15,125.24l-.16-.3c-.4-.74-1.29-2.6-.87-4.04.2-.69.69-1.19,1.48-1.54l13.55-6.23-.16.73c-.02.09-.04.19-.06.29-.23,1.33-.05,2.88.53,4.38l.13.33-14.43,6.38Z"/>
    <path class="cls-2" d="M198,120.59c-.29-.99-1.02-1.77-2.1-2.24l-15.84-7.28s-.06-.03-.1-.05c-.31-.14-.82-.3-1.43-.3-.42,0-.9.08-1.42.3-.01.43-.03.86-.05,1.28.5-.3,1-.46,1.5-.46.32,0,.63.07.94.2l.09.04c.71.36,1.23,1.18,1.42,2.27.22,1.27,0,2.74-.62,4.15l-.13.3c-.14.36.04.78.4.94l7.52,3.32-.25.37c-.87,1.26-1.35,2.48-1.61,3.41l1.06.41c.25-.91.75-2.19,1.69-3.48l.18-.24,6.48,2.87c.35.15.77.02.97-.33.13-.2.58-.91.94-1.85.37-.95.74-2.35.36-3.61ZM196.05,124.94l-.16.3-14.43-6.38.13-.33c.58-1.5.76-3.05.53-4.38-.02-.1-.04-.19-.06-.29l-.16-.73,13.55,6.23c.8.35,1.28.85,1.48,1.54.42,1.44-.47,3.3-.87,4.04Z"/>
    <path class="cls-2" d="M151.51,14.64l-1.58,1.04c-5.54,3.65-12.7,5.66-20.16,5.66-7.82,0-15.23-2.18-20.87-6.14l-1.4-.98-1.4.98c-5.64,3.96-13.05,6.14-20.87,6.14s-14.61-2.01-20.16-5.66l-1.58-1.04-25.81,23.57-1.93,1.77,1.9,1.81c3.07,2.92,11.04,11.94,11.09,18.51.06,8.41-2.42,15.35-5.55,24.14l-.26.72c-.75,2.11-2.6,7.88-3.48,15.83-.15,1.34-.26,2.69-.34,4-.07,1.27-.11,2.53-.12,3.77-.03,9.18,1.76,17.14,5.32,23.66.61,1.12,1.29,2.21,2.01,3.25.08.12.19.28.32.47l.05.08c12.58,18.91,31.11,30.69,52.17,33.15l.19.02,8.43,8.44,8.43-8.44.19-.02c21.07-2.46,39.59-14.24,52.17-33.15l.05-.08c.13-.2.24-.36.32-.48.72-1.04,1.4-2.13,2.01-3.25,3.57-6.53,5.36-14.49,5.32-23.66,0-1.23-.04-2.5-.11-3.77-.08-1.31-.19-2.66-.34-4-.88-7.94-2.72-13.71-3.48-15.83l-.26-.72c-3.13-8.79-5.61-15.74-5.55-24.14.05-6.57,8.02-15.59,11.09-18.51l1.9-1.81-27.75-25.34ZM163.84,60.28c-.07,9.07,2.64,16.43,5.95,25.7,1.24,3.49,2.65,8.96,3.35,15.27.14,1.26.25,2.55.33,3.87.07,1.2.11,2.41.11,3.64.03,7.54-1.24,15.56-5.02,22.48-.57,1.04-1.19,2.05-1.87,3.03-1.98,2.84-17.94,29.33-51.86,32.79l-.12.12h0s-7.2,7.21-7.2,7.21l-7.19-7.21-.12-.12c-33.92-3.45-49.88-29.94-51.86-32.79-.68-.98-1.3-1.99-1.87-3.03-3.78-6.92-5.05-14.94-5.02-22.48,0-1.23.04-2.44.11-3.64.08-1.32.19-2.61.33-3.87.7-6.31,2.11-11.79,3.35-15.27,3.3-9.27,6.01-16.63,5.95-25.7-.07-9.07-11.84-20.26-11.84-20.26l24.41-22.29c5.73,3.77,13.25,6.06,21.49,6.06s16.45-2.5,22.26-6.58c5.82,4.09,13.65,6.58,22.27,6.58s15.76-2.29,21.49-6.06l24.41,22.29s-11.78,11.19-11.85,20.26Z"/>
    <g>
      <path class="cls-2" d="M84.09,51.35c-.7-.16-1.67.05-2.59.64-.92.59-1.56,1.41-1.79,2.17.7.16,1.67-.05,2.58-.64.92-.59,1.57-1.42,1.79-2.17Z"/>
      <path class="cls-2" d="M80.31,38.14c.09-.79-.18-1.85-.78-2.82-.6-.97-1.39-1.62-2.09-1.81-.09.79.18,1.85.78,2.82.6.97,1.39,1.62,2.09,1.81Z"/>
      <path class="cls-2" d="M80.35,41.59c-.11.71.08,1.67.58,2.57.5.9,1.18,1.53,1.8,1.73.11-.71-.08-1.67-.58-2.57-.5-.9-1.18-1.53-1.8-1.74Z"/>
      <path class="cls-2" d="M81.74,39.33c.45-.63.71-1.68.64-2.86-.06-1.18-.43-2.19-.94-2.76-.45.63-.71,1.68-.64,2.86.06,1.18.43,2.19.94,2.76Z"/>
      <path class="cls-2" d="M83.09,44.87c.67-.27,1.39-1.02,1.89-2.06.5-1.04.66-2.12.49-2.9-.67.27-1.39,1.02-1.89,2.06-.5,1.04-.66,2.12-.49,2.9Z"/>
      <path class="cls-2" d="M79.61,40.34c.74.67,1.57,1,2.21.97-.11-.71-.58-1.54-1.32-2.21-.74-.67-1.57-1-2.21-.97.1.71.58,1.54,1.32,2.21Z"/>
      <path class="cls-2" d="M82.6,42.68c.56-.5,1.03-1.46,1.22-2.62.18-1.16.03-2.24-.35-2.92-.56.5-1.03,1.46-1.21,2.62-.18,1.16-.03,2.24.35,2.92Z"/>
      <path class="cls-2" d="M85.9,47.96c-.7-.16-1.67.05-2.58.64-.92.59-1.57,1.41-1.79,2.17.7.16,1.67-.05,2.58-.64.92-.59,1.57-1.41,1.79-2.17Z"/>
      <path class="cls-2" d="M84.51,47.01c.68-.91,1.03-1.93,1.01-2.73-.71.12-1.55.69-2.23,1.6-.68.91-1.03,1.93-1.01,2.73.71-.12,1.55-.69,2.22-1.6Z"/>
      <path class="cls-2" d="M80.37,51.39c.56-.5,1.03-1.47,1.2-2.63.18-1.16.01-2.25-.37-2.92-.56.5-1.02,1.47-1.2,2.63-.17,1.17-.01,2.25.37,2.92Z"/>
      <path class="cls-2" d="M80.24,54.73c-1.04.21-1.91.74-2.35,1.37.61.42,1.58.58,2.63.37,1.04-.21,1.9-.74,2.35-1.37-.61-.42-1.59-.58-2.63-.37Z"/>
      <path class="cls-2" d="M61.16,50.78c-.22-.76-.87-1.58-1.79-2.17-.92-.59-1.88-.81-2.59-.64.22.76.87,1.58,1.79,2.17.92.59,1.88.81,2.58.64Z"/>
      <path class="cls-2" d="M62.98,54.16c-.23-.76-.87-1.58-1.79-2.17-.92-.59-1.88-.81-2.58-.64.22.76.87,1.58,1.79,2.17.92.59,1.88.8,2.59.64Z"/>
      <path class="cls-2" d="M64.8,56.1c-.44-.63-1.3-1.16-2.35-1.37-1.04-.21-2.01-.05-2.63.37.44.63,1.3,1.16,2.35,1.37,1.04.21,2.02.05,2.63-.37Z"/>
      <path class="cls-2" d="M79.3,53.5c.48-1.05.63-2.13.45-2.91-.67.29-1.38,1.05-1.86,2.1-.48,1.05-.63,2.13-.45,2.91.67-.29,1.38-1.05,1.86-2.1Z"/>
      <path class="cls-2" d="M62.49,58.06c.59.46,1.55.69,2.6.56,1.05-.14,1.94-.6,2.42-1.2-.59-.46-1.55-.69-2.6-.56-1.05.14-1.94.6-2.42,1.2Z"/>
      <path class="cls-2" d="M67.56,56.95c.88.65,1.83.93,2.54.82-.18-.77-.78-1.64-1.66-2.29-.88-.65-1.83-.93-2.55-.82.18.77.78,1.64,1.67,2.29Z"/>
      <path class="cls-2" d="M62.94,50.59c-.18.77-.04,1.86.45,2.91.48,1.05,1.19,1.81,1.86,2.1.18-.77.04-1.86-.45-2.91-.48-1.05-1.19-1.81-1.86-2.1Z"/>
      <path class="cls-2" d="M64.47,36.33c.6-.97.87-2.02.78-2.82-.7.19-1.49.84-2.09,1.81-.6.97-.87,2.02-.78,2.82.7-.19,1.49-.84,2.09-1.81Z"/>
      <path class="cls-2" d="M63.08,40.34c.74-.67,1.21-1.5,1.32-2.21-.64-.03-1.47.3-2.21.97-.74.67-1.22,1.5-1.32,2.21.64.03,1.47-.3,2.21-.97Z"/>
      <path class="cls-2" d="M77.59,58.61c1.05.13,2.01-.1,2.6-.56-.48-.6-1.37-1.06-2.42-1.2-1.05-.13-2.01.1-2.6.56.48.6,1.37,1.07,2.42,1.2Z"/>
      <path class="cls-2" d="M68.14,58.22c-1.03.26-1.87.83-2.29,1.48.63.39,1.61.5,2.64.24,1-.25,1.81-.79,2.24-1.41.13.12.25.24.38.36-1.15.67-2.15,1.56-3.02,2.7.34.54.51.81.85,1.35.66-1.5,1.47-2.74,2.44-3.77.93,1.02,1.63,2.24,2.3,3.75.34-.54.51-.81.85-1.35-.87-1.14-1.77-2.01-2.88-2.67.12-.12.25-.24.38-.36.43.62,1.25,1.15,2.24,1.4,1.03.26,2.01.14,2.64-.24-.42-.65-1.26-1.22-2.29-1.48-.86-.22-1.68-.17-2.3.08-.59.23-.94.44-.94.44-.26-.14-.54-.28-.83-.4-.02,0-.03-.01-.05-.02,0,0-.01,0-.02,0,0,0,0,0,0,0-.62-.26-1.46-.31-2.34-.09Z"/>
      <path class="cls-2" d="M59.6,44.87c.17-.78,0-1.86-.49-2.9-.5-1.04-1.22-1.79-1.89-2.06-.17.78,0,1.86.49,2.9.5,1.04,1.22,1.79,1.89,2.06Z"/>
      <path class="cls-2" d="M75.13,56.95c.88-.65,1.49-1.52,1.67-2.29-.71-.11-1.66.17-2.54.82-.88.65-1.48,1.52-1.67,2.29.71.11,1.66-.17,2.54-.82Z"/>
      <path class="cls-2" d="M62.31,51.39c.38-.68.54-1.76.37-2.92-.17-1.16-.64-2.13-1.2-2.63-.38.68-.54,1.76-.37,2.92.17,1.16.64,2.13,1.2,2.63Z"/>
      <path class="cls-2" d="M57.17,44.28c-.03.8.33,1.82,1,2.73.68.91,1.52,1.48,2.23,1.6.03-.8-.33-1.82-1.01-2.73-.68-.91-1.52-1.48-2.23-1.6Z"/>
      <path class="cls-2" d="M61.75,44.15c.5-.9.7-1.86.58-2.57-.62.21-1.3.83-1.8,1.74-.5.9-.7,1.86-.58,2.57.62-.21,1.3-.83,1.8-1.73Z"/>
      <path class="cls-2" d="M61.89,36.58c.06-1.18-.2-2.23-.64-2.86-.51.56-.88,1.58-.94,2.76-.06,1.18.2,2.23.64,2.86.51-.56.88-1.58.94-2.76Z"/>
      <path class="cls-2" d="M60.09,42.68c.38-.68.53-1.76.35-2.92-.18-1.16-.65-2.13-1.21-2.62-.38.68-.53,1.76-.35,2.92.18,1.16.65,2.12,1.21,2.62Z"/>
      <path class="cls-2" d="M82.3,53.52c-.92.59-1.88.8-2.58.64.23-.76.87-1.58,1.79-2.17.92-.59,1.88-.81,2.59-.64-.22.76-.87,1.58-1.79,2.17Z"/>
      <path class="cls-2" d="M82.87,55.1c-.44.63-1.3,1.16-2.35,1.37-1.04.21-2.01.05-2.63-.37.44-.63,1.3-1.16,2.35-1.37,1.04-.21,2.01-.05,2.63.37Z"/>
      <path class="cls-2" d="M82.73,45.89c-.62-.21-1.3-.83-1.8-1.73-.5-.9-.7-1.86-.58-2.57.62.21,1.3.83,1.8,1.74.5.9.7,1.86.58,2.57Z"/>
      <path class="cls-2" d="M83.29,45.88c.68-.91,1.51-1.48,2.23-1.6.02.8-.33,1.82-1.01,2.73-.68.91-1.51,1.48-2.22,1.6-.02-.8.33-1.82,1.01-2.73Z"/>
      <path class="cls-2" d="M81.2,45.84c.38.68.54,1.76.37,2.92-.17,1.16-.64,2.13-1.2,2.63-.38-.68-.54-1.76-.37-2.92.18-1.16.64-2.13,1.2-2.63Z"/>
      <path class="cls-2" d="M81.53,50.78c.22-.76.87-1.58,1.79-2.17.92-.59,1.88-.81,2.58-.64-.22.76-.87,1.58-1.79,2.17-.92.59-1.88.81-2.58.64Z"/>
      <path class="cls-2" d="M85.48,39.91c.17.78,0,1.86-.49,2.9-.5,1.04-1.22,1.79-1.89,2.06-.17-.78,0-1.86.49-2.9.5-1.04,1.22-1.79,1.89-2.06Z"/>
      <path class="cls-2" d="M83.46,37.14c.38.68.53,1.76.35,2.92-.18,1.16-.65,2.12-1.22,2.62-.38-.68-.53-1.76-.35-2.92.18-1.16.65-2.13,1.21-2.62Z"/>
      <path class="cls-2" d="M81.44,33.71c.51.56.88,1.58.94,2.76.06,1.18-.2,2.23-.64,2.86-.51-.56-.88-1.58-.94-2.76-.06-1.18.2-2.23.64-2.86Z"/>
      <path class="cls-2" d="M81.82,41.31c-.64.03-1.47-.3-2.21-.97-.74-.67-1.21-1.5-1.32-2.21.64-.03,1.47.3,2.21.97.74.67,1.21,1.5,1.32,2.21Z"/>
      <path class="cls-2" d="M77.43,33.51c.7.19,1.49.84,2.09,1.81.6.97.87,2.02.78,2.82-.7-.19-1.49-.84-2.09-1.81-.6-.97-.87-2.02-.78-2.82Z"/>
      <path class="cls-2" d="M77.89,52.69c.48-1.05,1.19-1.81,1.86-2.1.18.77.04,1.86-.45,2.91-.48,1.05-1.19,1.81-1.86,2.1-.18-.77-.04-1.86.45-2.91Z"/>
      <path class="cls-2" d="M77.77,56.86c1.05.14,1.94.6,2.42,1.2-.59.46-1.55.69-2.6.56-1.05-.14-1.94-.6-2.42-1.2.59-.46,1.55-.69,2.6-.56Z"/>
      <path class="cls-2" d="M74.25,55.48c.88-.65,1.84-.93,2.54-.82-.18.77-.78,1.64-1.67,2.29-.88.65-1.83.93-2.54.82.18-.77.78-1.64,1.67-2.29Z"/>
      <path class="cls-2" d="M70.5,58.32s.03.01.05.02c.29.12.57.26.83.4,0,0,.35-.21.94-.44.61-.25,1.44-.29,2.3-.08,1.03.26,1.87.83,2.29,1.48-.63.39-1.61.5-2.64.24-.99-.25-1.8-.78-2.24-1.4-.13.12-.25.23-.38.36,1.11.66,2.01,1.53,2.88,2.67-.34.54-.51.81-.85,1.35-.66-1.5-1.37-2.73-2.3-3.75-.97,1.03-1.78,2.27-2.44,3.77-.34-.54-.51-.81-.85-1.35.87-1.14,1.87-2.03,3.02-2.7-.12-.12-.25-.24-.38-.36-.43.62-1.25,1.16-2.24,1.41-1.04.26-2.01.14-2.64-.24.42-.65,1.26-1.22,2.29-1.48.88-.22,1.72-.17,2.34.09,0,0,0,0,0,0,0,0,.01,0,.02,0Z"/>
      <path class="cls-2" d="M68.44,55.48c.88.65,1.48,1.52,1.66,2.29-.71.11-1.66-.17-2.54-.82-.88-.65-1.48-1.52-1.67-2.29.71-.11,1.66.17,2.55.82Z"/>
      <path class="cls-2" d="M67.52,57.41c-.48.6-1.37,1.07-2.42,1.2-1.05.13-2.01-.1-2.6-.56.48-.6,1.37-1.06,2.42-1.2,1.05-.13,2.02.1,2.6.56Z"/>
      <path class="cls-2" d="M65.24,55.6c-.67-.29-1.38-1.05-1.86-2.1-.48-1.05-.63-2.13-.45-2.91.67.29,1.38,1.05,1.86,2.1.49,1.05.63,2.13.45,2.91Z"/>
      <path class="cls-2" d="M63.16,35.32c.6-.97,1.39-1.62,2.09-1.81.09.79-.18,1.85-.78,2.82-.6.97-1.39,1.62-2.09,1.81-.09-.79.18-1.85.78-2.82Z"/>
      <path class="cls-2" d="M62.19,39.11c.74-.67,1.57-1,2.21-.97-.1.71-.58,1.54-1.32,2.21-.74.67-1.57,1-2.21.97.1-.71.58-1.54,1.32-2.21Z"/>
      <path class="cls-2" d="M59.95,45.89c-.11-.71.08-1.67.58-2.57.5-.9,1.18-1.53,1.8-1.74.11.71-.08,1.67-.58,2.57-.5.9-1.18,1.53-1.8,1.73Z"/>
      <path class="cls-2" d="M60.4,48.61c-.71-.12-1.55-.69-2.23-1.6-.68-.91-1.03-1.93-1-2.73.71.12,1.55.69,2.23,1.6.68.91,1.03,1.93,1.01,2.73Z"/>
      <path class="cls-2" d="M61.49,45.84c.56.5,1.02,1.47,1.2,2.63.17,1.17.01,2.25-.37,2.92-.56-.5-1.02-1.47-1.2-2.63-.17-1.16-.01-2.25.37-2.92Z"/>
      <path class="cls-2" d="M60.3,36.47c.06-1.18.43-2.19.94-2.76.45.63.71,1.68.64,2.86-.06,1.18-.43,2.19-.94,2.76-.44-.63-.71-1.68-.64-2.86Z"/>
      <path class="cls-2" d="M59.23,37.14c.56.5,1.03,1.46,1.21,2.62.18,1.16.03,2.24-.35,2.92-.56-.5-1.03-1.46-1.21-2.62-.18-1.16-.03-2.24.35-2.92Z"/>
      <path class="cls-2" d="M57.21,39.91c.67.27,1.39,1.02,1.89,2.06.5,1.04.66,2.12.49,2.9-.67-.27-1.39-1.02-1.89-2.06-.5-1.04-.66-2.12-.49-2.9Z"/>
      <path class="cls-2" d="M56.79,47.96c.7-.16,1.67.05,2.59.64.92.59,1.57,1.41,1.79,2.17-.7.16-1.67-.05-2.58-.64-.92-.59-1.57-1.41-1.79-2.17Z"/>
      <path class="cls-2" d="M58.6,51.35c.7-.16,1.67.05,2.58.64.92.59,1.57,1.41,1.79,2.17-.7.16-1.67-.05-2.59-.64-.92-.59-1.57-1.42-1.79-2.17Z"/>
      <path class="cls-2" d="M59.82,55.1c.61-.42,1.58-.58,2.63-.37,1.04.21,1.9.74,2.35,1.37-.61.42-1.58.58-2.63.37-1.04-.21-1.9-.74-2.35-1.37Z"/>
    </g>
    <g>
      <path class="cls-2" d="M97.22,157.37c-.17-.01-.52-.03-.88-.03-.27,0-.57,0-.93.03h-.11s.02-.11.02-.11c.13-.86.2-1.76.2-2.75v-5.12c0-1.41-.12-1.57-.59-1.57-.13,0-.32.03-.57.09l-.8.18c-.24.06-.4.11-.56.18l-.05.02-.22-.17.04-.07c.11-.21.26-.58.34-.9v-.06s.08,0,.08,0c.41-.04.69-.07,1.17-.18l1.69-.36c.31-.06.65-.16.95-.24h.05s.19.18.19.18v.05c-.14.94-.2,2.01-.2,2.65v5.51c0,1.12.1,2.01.3,2.57l.05.13h-.14Z"/>
      <path class="cls-2" d="M109.17,157.47v.08s-.09,0-.09,0c-.01,0-1.28.01-2.02.07h-.06s-.14-.28-.14-.28l5.53-9.41h-3.46c-.54,0-1.23.06-1.82.48l-.04.03-.28-.11.03-.08c.18-.5.33-1.35.39-1.69v-.08s.1,0,.1,0c.4.03.83.03,1.28.03h3.97c.52,0,.75,0,1.22-.04h.09s0,.08,0,.08c.01.15.12.85.18,1l.02.05-.04.04c-.85.96-1.87,2.73-2.75,4.33-1.42,2.6-1.97,4.03-2.1,5.48Z"/>
      <path class="cls-2" d="M103.51,151.3c1.03-.58,1.99-1.29,1.99-2.69,0-1.51-1.26-2.61-2.99-2.61s-3.19,1.28-3.19,2.92c0,1.35.91,2.12,1.84,2.69-1.48.87-2.39,1.71-2.39,3.16,0,1.71,1.37,2.9,3.34,2.9,2.17,0,3.75-1.37,3.75-3.26,0-1.54-1.11-2.41-2.35-3.1ZM100.73,148.6c0-1.02.77-1.78,1.81-1.78s1.83.77,1.83,1.82c0,1.17-.85,1.77-1.72,2.25-.97-.56-1.92-1.17-1.92-2.3ZM102.26,156.87c-1.26,0-2.18-.91-2.18-2.14,0-1.33,1.02-2.13,2.09-2.65,1.45.79,2.36,1.45,2.36,2.66s-.99,2.13-2.27,2.13Z"/>
      <path class="cls-2" d="M118.73,151.53c1.03-.58,1.99-1.28,1.99-2.69,0-1.52-1.26-2.62-2.99-2.62s-3.19,1.28-3.19,2.92c0,1.35.91,2.12,1.84,2.69-1.48.87-2.39,1.71-2.39,3.16,0,1.71,1.37,2.9,3.34,2.9,2.17,0,3.75-1.37,3.75-3.26,0-1.54-1.11-2.4-2.35-3.1ZM116.05,148.83c0-1.02.78-1.78,1.81-1.78s1.83.77,1.83,1.83c0,1.17-.85,1.77-1.72,2.25-.97-.56-1.92-1.17-1.92-2.3ZM117.59,157.1c-1.26,0-2.18-.91-2.18-2.15,0-1.32,1.02-2.13,2.08-2.65,1.45.79,2.36,1.44,2.36,2.66s-.99,2.13-2.27,2.13Z"/>
    </g>
    <g>
      <path class="cls-2" d="M74.3,134.62c-.2.71-.82,2.98-.88,3.16-3.29-.11-5.48-.14-7.42-.14-2.44,0-4.02,0-5.34.03.23-1.55.41-3.34.41-5.57v-9.2c0-1.49-.06-4.34-.59-5.66,1,.06,1.67.06,2.41.06h5.52c1.97,0,2.76-.06,4.9-.09-.39,1.41-.8,2.89-.96,3.46-.16.57-.45.14-.51.06-.91-1.32-2.67-1.47-4.34-1.47-.53,0-1.15.03-1.88.06-.03.5-.12,1.9-.12,3.16v2.99h2.44c1.79,0,3.59-.13,4.29-.24.29-.04.23.21.23.21-.22.79-.51,1.86-.7,2.54-1.88-.18-2.91-.23-4.2-.23h-2.08v4.16c0,2.7.29,3.58,3.49,3.58,1.82,0,2.79.01,4.76-1.49.35-.27.77-.11.58.6Z"/>
      <path class="cls-2" d="M83.12,134.65c-.44,1.06-.65,1.82-.91,3-.29-.03-.97-.03-1.65-.03-.59,0-1.32.03-1.88.06-.21-1.29-.44-2.12-.88-3.41l-1.94-5.94c-.59-1.76-1.3-3.7-2.59-5.2,1.94.06,3.47-.03,5.33-.17.12,1.44.44,2.82.85,4.2l1.09,3.73c.27.88.83,2.85.83,2.85.2-.64.44-1.26.65-1.82l1.71-4.41c.29-.76.68-1.94.79-3.14,0-.41.03-.79,0-1.29.41.03,1.18.03,1.8.03s1.55-.07,2-.13c.4-.05.35.2.21.37-1.01,1.29-1.82,3.03-2.59,4.82l-2.8,6.49Z"/>
      <path class="cls-2" d="M106.73,137.67c-.48-.03-1.43-.06-2.35-.06s-1.84.03-2.41.06c.27-1.72.36-3.15.36-5.29v-3.56c0-1.43-.12-3.98-.63-5.55,1.13,0,2.89-.06,4.08-.12l-.06,3.39,1.07-1.4c1.34-1.75,2.26-2.32,3.66-2.32.51,0,.74.04,1.28.28-.42,1.51-.86,3.09-1.11,4.01-.06.2-.24.47-.51.17-.57-.63-.67-.87-1.36-.87-.83,0-1.52.45-2.02,1.28-.42.68-.6,1.25-.6,2.67v2.41c0,2.55.18,3.62.6,4.9Z"/>
      <path class="cls-2" d="M123.17,123.38c-.12.42-.45,1.64-.59,2.14-1.16-.14-1.86-.14-2.64-.14h-1.32c-.06.99-.09,2.18-.09,3.02v3.38c0,2.27.24,3.95,2.22,3.95.63,0,1.14-.14,1.92-.54.13-.06.43-.05.32.35-.18.66-.35,1.26-.56,2.01-1.78.47-2.52.6-3.48.6-2.55,0-4.2-1.11-4.2-4.75v-4.54c0-1.46,0-2.51-.06-3.5-.78,0-1.61.09-2.02.17-.09.01-.29-.02-.2-.34.02-.09.4-1.43.53-1.91.38.04,1.09.06,1.81.06,0-1.16-.06-1.79-.12-2.69,1.05-.3,2.95-1.16,3.77-1.68.3-.19.46.08.43.41-.03.35-.23,1.33-.28,3.96h2.07c.72,0,1.52-.03,2.27-.21.11-.03.28.03.21.27Z"/>
      <path class="cls-2" d="M152.15,137.62c-.96,0-1.92.03-2.44.06.27-1.62.36-3.51.36-5.67v-2.61c0-1.74-.12-3.75-2.58-3.75-.87,0-1.75.36-2.41.99-.75.75-.96,1.38-.96,3.24v2.13c0,2.73.18,4.38.6,5.67-.45-.03-1.44-.06-2.38-.06-.99,0-1.92.03-2.44.06.27-1.62.36-3.51.36-5.67v-3.66c0-1.44-.12-3.63-.63-5.22,1.32,0,3.16,0,4.42-.12l-.09,2.58,1.2-1.02c1.47-1.23,2.68-1.74,4.18-1.74,3.43,0,4.6,1.92,4.6,5.31v3.87c0,2.73.18,4.38.6,5.67-.48-.03-1.48-.06-2.41-.06Z"/>
      <path class="cls-2" d="M100.01,130.1c.51,0,.51-1.26.51-1.55,0-3.52-2.26-5.69-5.87-5.69-4.2,0-7.1,3.16-7.1,7.74s2.88,7.59,7.4,7.59c1.56,0,3.24-.43,4.59-.87.24-.87.31-1.13.6-2.15.13-.47-.14-.63-.38-.46-1.04.72-1.79.97-3.05.97-3.14,0-5.02-1.99-5.08-5.48.97-.06,3.11-.09,4.64-.09h3.75ZM91.59,128.37c.15-2.4.94-3.81,2.82-3.81,1.32,0,2.32,1,2.32,2.38,0,.94-.5,1.32-1.76,1.35l-3.38.09Z"/>
      <path class="cls-2" d="M131.52,122.82c-5.24,0-8.04,3.35-8.04,7.97s2.71,7.35,7.34,7.35c4.86,0,7.98-3.15,7.98-8.09,0-4.59-2.62-7.24-7.28-7.24ZM131.14,136.5c-2.24,0-3.48-2.18-3.48-6.29,0-3.5.94-5.71,3.39-5.71,2.3,0,3.57,2.21,3.57,6.3,0,3.76-1.21,5.71-3.48,5.71Z"/>
    </g>
    <path class="cls-2" d="M123.78,61.61l-14.75-31.03c.54-1.15-.53-2.63-1.67-2.63s-2.05,1.49-1.5,2.66l-14.65,31.18c-2.92,1.57-3.55,3.56-2.95,4.88,0,0,.35.93,1.65,1.32.01,2.02.04,21.33.06,25.04,0,.05.02.17-.02.16-.59-.09-1.27.3-1.27,1.32,0,1.56,0,2.48,0,3.99,0,.37,0,1.45,0,1.57,0,1.24,1.27,1.63,1.27,1.63,0,0,27.96,9.99,28.88,10.34,1.33.51,2.53.93,3.68,1.38.38.15.4.37.43,1.06v1.42s.71.03,1.08.03c2.7,0,2.37-1.37,2.45-5.5.08-4.33.09-5.64-1.15-5.92-.1-11.39.15-31.34.1-36.96.91-.35,1.71-1.06,1.83-2.16.12-1.01-.98-2.55-3.47-3.77ZM107.56,34.02c.49,1.05,1.04,2.23,1.62,3.47-.51.03-1.52.11-2.16.26-.38.08-.45.22-.45.35,0,.12.15.31.54.32.81.02,1.96.07,2.55.1.18.37.35.75.53,1.13-.42.13-1.03.31-1.2.38-.27.11-.54.2-.52.4.02.18.31.2.54.23.5.06,1.26.11,1.7.1.29.63.51,1.09.81,1.73.19.4-.38.48-.85.51-.56.04-2,.04-2.69.13-.27.03-.37.18-.37.33,0,.15.2.27.46.29.98.05,2.19.15,2.84.28.53.1,1.13.24,1.52.38.19.4.37.79.55,1.19.11.23-.2.34-.43.36-.37.03-2.01-.07-2.89.01-.39.04-.47.13-.47.33,0,.14.07.23.45.29.7.11,2.11.17,2.55.24.47.07,1.09.24,1.57.45.3.65.49,1.06.79,1.69.12.26-.05.35-.21.36-.26.02-3.23.06-3.48.07-.3.02-.64.11-.69.35-.04.19.22.47.91.51.69.04,3.29.19,4.63,1.16.36.78.72,1.54,1.05,2.26-1.01-.09-4.54-.39-6.15-.35-1.39.04-1.96,0-2.01.28-.05.28.24.41,1.11.5.83.08,5.43.36,7.86,1.3.48,1.02.9,1.93,1.26,2.7-1.28-.26-4.25-.7-6.05-.74-.69-.02-.96.13-.96.42s.62.33,1.05.37c2.25.22,5.42.99,6.67,1.47.13.28.23.5.32.68-4.09-.85-9.91-1.26-12.49-1.26s-8.03.36-12.13,1.34c1.17-2.48,8.4-17.99,12.33-26.39ZM96.63,102.29c0,.12-.1.19-.23.14-1.27-.44-1.9-.67-3.17-1.1-.12-.04-.23-.18-.23-.3v-5.28c0-.12.1-.18.23-.14,1.27.48,1.9.71,3.17,1.18.13.05.23.18.23.3,0,2.06,0,3.1,0,5.19ZM101.93,104.17c0,.12-.1.18-.23.14-1.27-.45-1.9-.68-3.17-1.13-.13-.04-.23-.18-.23-.3,0-2.09,0-3.13,0-5.17,0-.12.1-.18.23-.13,1.27.46,1.91.69,3.18,1.13.12.04.23.18.23.29,0,2.04,0,3.09,0,5.17ZM107.22,106.05c0,.12-.1.18-.23.14-1.27-.45-1.9-.67-3.17-1.12-.13-.05-.23-.18-.23-.3,0-2.08,0-3.14,0-5.18,0-.12.1-.18.23-.14,1.27.44,1.9.65,3.17,1.07.13.04.23.17.23.29,0,2.08,0,3.15-.01,5.24ZM112.51,107.9c0,.12-.1.19-.23.14-1.27-.44-1.9-.66-3.16-1.11-.13-.04-.23-.18-.23-.3,0-2.09,0-3.18.02-5.28,0-.12.1-.19.23-.15,1.27.41,1.9.61,3.16,1,.13.04.23.17.23.3,0,2.17-.01,3.29-.02,5.4ZM117.79,109.74c0,.12-.1.19-.23.14-1.26-.44-1.9-.66-3.16-1.1-.12-.04-.23-.18-.23-.3,0-2.11.01-3.24.02-5.46,0-.13.1-.2.23-.16,1.26.39,1.9.58,3.16.95.12.04.23.18.23.31,0,2.31,0,3.49-.02,5.61ZM102.05,97.25c-6.25-2.17-9.08-3.32-9.14-5.13-.04-1.13-.19-5.8-.07-6.99l-.12-17.43c0-.52.84-.82,1.61-1.01.74-.18,5.34-1.2,13.04-1.2s13.09.93,14.47,1.48c.3.12.67.27.89.46l.02,1.5c-1.31-.18-6.28-.87-8.41-1.01-.98-.07-2.26-.11-3.5-.14,0-.13-.05-.26-.14-.36-.1-.11-.24-.18-.39-.19-2.72-.12-3.68-.12-6.44,0-.15,0-.29.07-.39.19-.1.11-.15.26-.15.41l.36,6.65c-.11,0-.21.01-.29.02-1.35.11-6.78.87-7.14.97-.5.13-.62.27-.57.45.07.29.46.19.86.15,2.7-.31,5.12-.47,7.21-.55l.06,1.06c.02.3.27.54.57.54h.02c2.3-.1,3.09-.1,5.39,0,.3.01.57-.23.59-.54l.06-1.05c.87.04,1.33.09,1.33.09,3.87.34,8.93,1.08,11.11,2.4l.02,1.57c-1.27-.27-4.53-.95-5.73-1.04-1.5-.11-2.21-.04-2.46,0-.25.03-.46.18-.43.37.03.18.25.3.57.33.31.04,5.12.21,8.07,2.23l.02,1.59c-1.7-.34-7.33-1.42-11.24-1.61-5.11-.24-11.47.37-11.97.45-.5.07-.75.22-.71.48.04.26.12.39.82.34.5-.04,9.79-.37,14.65.33,3.96.58,6.7,1.24,8.47,2.09l.02,2c-1.58-.32-5.03-.99-6.78-1.14-3.64-.31-5.97-.25-6.36-.25-.36,0-.51.17-.49.39.02.28.28.27.53.28.48.02,3.17.09,6.15.55,1.95.3,4.97.78,6.98,1.82l.02,2.03c-1.05-.12-3.1-.35-3.97-.38-1.18-.03-2.16,0-2.54.07-.24.06-.38.22-.34.37.04.15.17.27.41.27s2,.11,3.33.33c1.04.18,2.29.54,3.13.96,0,0,0,1.98,0,2.64,0,.08-2.25-.7-4.47-.85-2.01-.13-3.93-.1-5.44.03-.14.01-.56.09-.55.45,0,.4.47.33.69.34,1.15.04,2.09,0,4.11.2,2.93.29,5.7,1.23,5.7,1.29,0,.81,0,1.54,0,2.5,0,.04-1.26-.36-3.23-.62-.81-.11-2.22-.26-2.75-.21-.36.03-.7.1-.71.42-.02.47.81.48,1.1.51.31.04,1.18.1,2.69.35,1.23.2,2.9.68,2.9.72,0,2.08,0,3.76,0,3.76-6.23-1.73-14.47-4.29-21.01-6.72ZM115.57,71.96c.27,0,5.11.13,7.23,1.91l.03,2.02c-1.36-.33-4.5-1.03-8.19-1.39-.98-.1-1.95-.16-2.91-.2,0,0-.49-.01-1.25-.03l.31-5.64c1.43.1,2.93.24,4.24.41,2.1.28,6.02.98,7.73,1.69l.02,1.45c-.84-.19-2.64-.58-3.89-.75-1.68-.22-2.97-.22-3.26-.18-.29.03-.64.06-.63.37,0,.26.28.33.57.33ZM109.64,68.68l-.39,7.27s-2.07-.04-3.72,0l-.42-7.24s2.8-.14,4.52-.04ZM123.08,111.57c0,.12-.1.19-.23.14-1.27-.44-1.9-.66-3.16-1.1-.12-.04-.22-.18-.22-.3,0-2.12,0-3.31.01-5.68,0-.14.1-.22.23-.18,1.26.38,1.89.56,3.15.94.12.04.23.19.23.33v5.85ZM124.03,65.74c-.3.52-.96.32-1.66,0-.64-.29-6.01-2.23-15-2.23s-13.91,1.76-14.56,1.92c-.65.16-1.55.68-2.05-.26-.33-.61.1-1.2,1.1-1.62,1-.42,8.28-2.01,15.51-2.08,7.24-.07,14.15,1.5,16.1,2.76.5.31.86.99.55,1.52Z"/>
    <g>
      <path class="cls-2" d="M130.93,50.13c.92.59,1.88.81,2.58.64-.22-.76-.87-1.58-1.79-2.17-.92-.59-1.88-.81-2.59-.64.22.76.87,1.58,1.79,2.17Z"/>
      <path class="cls-2" d="M135.29,50.59c-.18.77-.04,1.86.45,2.91.48,1.05,1.19,1.81,1.86,2.1.18-.77.04-1.86-.45-2.91-.48-1.05-1.19-1.81-1.86-2.1Z"/>
      <path class="cls-2" d="M131.95,44.87c.17-.78,0-1.86-.49-2.9-.5-1.04-1.22-1.79-1.89-2.06-.17.78,0,1.86.49,2.9.5,1.04,1.22,1.79,1.89,2.06Z"/>
      <path class="cls-2" d="M136.83,36.33c.6-.97.87-2.02.78-2.82-.7.19-1.49.84-2.09,1.81-.6.97-.87,2.02-.78,2.82.7-.19,1.49-.84,2.09-1.81Z"/>
      <path class="cls-2" d="M135.44,40.34c.74-.67,1.21-1.5,1.32-2.21-.64-.03-1.47.3-2.21.97-.74.67-1.21,1.5-1.32,2.21.64.03,1.47-.3,2.21-.97Z"/>
      <path class="cls-2" d="M132.45,42.68c.38-.68.53-1.76.35-2.92-.18-1.16-.65-2.13-1.21-2.62-.38.68-.53,1.76-.35,2.92.18,1.16.65,2.12,1.21,2.62Z"/>
      <path class="cls-2" d="M134.25,36.58c.06-1.18-.2-2.23-.64-2.86-.51.56-.88,1.58-.94,2.76-.06,1.18.2,2.23.64,2.86.51-.56.88-1.58.94-2.76Z"/>
      <path class="cls-2" d="M151.96,40.34c.74.67,1.57,1,2.21.97-.1-.71-.58-1.54-1.32-2.21-.74-.67-1.57-1-2.21-.97.1.71.58,1.54,1.32,2.21Z"/>
      <path class="cls-2" d="M149.95,58.61c1.05.13,2.01-.1,2.6-.56-.48-.6-1.37-1.06-2.42-1.2-1.05-.13-2.02.1-2.6.56.48.6,1.37,1.07,2.42,1.2Z"/>
      <path class="cls-2" d="M152.66,38.14c.09-.79-.18-1.85-.78-2.82-.6-.97-1.39-1.62-2.09-1.81-.09.79.18,1.85.78,2.82.6.97,1.39,1.62,2.09,1.81Z"/>
      <path class="cls-2" d="M151.66,53.5c.48-1.05.63-2.13.45-2.91-.67.29-1.38,1.05-1.86,2.1-.48,1.05-.63,2.13-.45,2.91.67-.29,1.38-1.05,1.86-2.1Z"/>
      <path class="cls-2" d="M154.09,39.33c.45-.63.71-1.68.65-2.86-.06-1.18-.43-2.19-.94-2.76-.45.63-.71,1.68-.65,2.86.06,1.18.43,2.19.94,2.76Z"/>
      <path class="cls-2" d="M154.95,42.68c.56-.5,1.03-1.46,1.21-2.62.18-1.16.03-2.24-.35-2.92-.56.5-1.03,1.46-1.21,2.62-.18,1.16-.03,2.24.35,2.92Z"/>
      <path class="cls-2" d="M155.09,45.89c.11-.71-.08-1.67-.58-2.57-.5-.9-1.18-1.53-1.8-1.74-.11.71.08,1.67.58,2.57.5.9,1.18,1.53,1.8,1.73Z"/>
      <path class="cls-2" d="M155.45,44.87c.68-.27,1.39-1.02,1.89-2.06.5-1.04.66-2.12.49-2.9-.67.27-1.39,1.02-1.89,2.06-.5,1.04-.66,2.12-.49,2.9Z"/>
      <path class="cls-2" d="M152.36,48.47c-.17,1.17-.01,2.25.37,2.92.56-.5,1.02-1.47,1.2-2.63.17-1.16.01-2.25-.37-2.92-.56.5-1.02,1.47-1.2,2.63Z"/>
      <path class="cls-2" d="M129.53,44.28c-.03.8.33,1.82,1.01,2.73.68.91,1.51,1.48,2.23,1.6.02-.8-.33-1.82-1.01-2.73-.68-.91-1.52-1.48-2.23-1.6Z"/>
      <path class="cls-2" d="M134.52,56.47c1.04.21,2.02.05,2.63-.37-.44-.63-1.3-1.16-2.35-1.37-1.04-.21-2.01-.05-2.63.37.44.63,1.3,1.16,2.35,1.37Z"/>
      <path class="cls-2" d="M147.48,56.95c.88-.65,1.48-1.52,1.67-2.29-.71-.11-1.66.17-2.54.82-.88.65-1.48,1.52-1.67,2.29.71.11,1.66-.17,2.54-.82Z"/>
      <path class="cls-2" d="M130.96,51.35c.22.76.87,1.58,1.79,2.17.92.59,1.88.8,2.59.64-.23-.76-.87-1.58-1.79-2.17-.92-.59-1.88-.81-2.58-.64Z"/>
      <path class="cls-2" d="M134.11,44.15c.5-.9.69-1.86.58-2.57-.62.21-1.3.83-1.8,1.74-.5.9-.7,1.86-.58,2.57.62-.21,1.3-.83,1.8-1.73Z"/>
      <path class="cls-2" d="M134.67,51.39c.38-.68.54-1.76.37-2.92-.17-1.16-.64-2.13-1.2-2.63-.38.68-.54,1.76-.37,2.92.17,1.16.64,2.13,1.2,2.63Z"/>
      <path class="cls-2" d="M134.85,58.06c.59.46,1.55.69,2.6.56,1.05-.14,1.94-.6,2.42-1.2-.59-.46-1.55-.69-2.6-.56-1.05.14-1.94.6-2.42,1.2Z"/>
      <path class="cls-2" d="M140.43,58.22c-1.04.26-1.87.83-2.29,1.48.63.39,1.6.5,2.64.24.99-.25,1.8-.78,2.24-1.4.13.12.25.23.38.36-1.11.66-2.01,1.53-2.88,2.67.34.54.51.81.85,1.35.66-1.5,1.37-2.73,2.29-3.75.97,1.03,1.78,2.27,2.44,3.77.34-.54.51-.81.86-1.35-.87-1.14-1.87-2.03-3.02-2.7.12-.12.25-.24.38-.36.43.62,1.25,1.16,2.24,1.41,1.03.26,2.01.14,2.64-.24-.42-.65-1.26-1.22-2.29-1.48-.88-.22-1.72-.17-2.34.09,0,0,0,0,0,0,0,0-.01,0-.02,0-.02,0-.03.01-.05.02-.29.12-.57.26-.83.4,0,0-.35-.21-.94-.44-.62-.25-1.44-.29-2.3-.08Z"/>
      <path class="cls-2" d="M139.92,56.95c.88.65,1.83.93,2.54.82-.18-.77-.78-1.64-1.66-2.29-.88-.65-1.84-.93-2.55-.82.18.77.78,1.64,1.67,2.29Z"/>
      <path class="cls-2" d="M156.87,47.01c.68-.91,1.03-1.93,1-2.73-.71.12-1.55.69-2.23,1.6-.68.91-1.03,1.93-1,2.73.71-.12,1.55-.69,2.23-1.6Z"/>
      <path class="cls-2" d="M153.86,51.99c-.92.59-1.57,1.41-1.79,2.17.7.16,1.67-.05,2.59-.64.92-.59,1.57-1.42,1.79-2.17-.7-.16-1.67.05-2.58.64Z"/>
      <path class="cls-2" d="M155.67,48.6c-.92.59-1.57,1.41-1.79,2.17.7.16,1.67-.05,2.59-.64.92-.59,1.57-1.41,1.79-2.17-.7-.16-1.67.05-2.58.64Z"/>
      <path class="cls-2" d="M152.59,54.73c-1.04.21-1.9.74-2.35,1.37.61.42,1.58.58,2.63.37,1.04-.21,1.9-.74,2.35-1.37-.61-.42-1.58-.58-2.63-.37Z"/>
      <path class="cls-2" d="M157.83,39.91c.17.78,0,1.86-.49,2.9-.5,1.04-1.22,1.79-1.89,2.06-.17-.78,0-1.86.49-2.9.5-1.04,1.22-1.79,1.89-2.06Z"/>
      <path class="cls-2" d="M153.29,44.15c-.5-.9-.7-1.86-.58-2.57.62.21,1.3.83,1.8,1.74.5.9.7,1.86.58,2.57-.62-.21-1.3-.83-1.8-1.73Z"/>
      <path class="cls-2" d="M153.93,48.76c-.17,1.16-.64,2.13-1.2,2.63-.38-.68-.54-1.76-.37-2.92.17-1.16.64-2.13,1.2-2.63.38.68.54,1.76.37,2.92Z"/>
      <path class="cls-2" d="M155.65,45.88c.68-.91,1.52-1.48,2.23-1.6.03.8-.33,1.82-1,2.73-.68.91-1.52,1.48-2.23,1.6-.03-.8.33-1.82,1-2.73Z"/>
      <path class="cls-2" d="M155.81,37.14c.38.68.53,1.76.35,2.92-.18,1.16-.65,2.12-1.21,2.62-.38-.68-.53-1.76-.35-2.92.18-1.16.65-2.13,1.21-2.62Z"/>
      <path class="cls-2" d="M153.8,33.71c.51.56.88,1.58.94,2.76.06,1.18-.2,2.23-.65,2.86-.51-.56-.88-1.58-.94-2.76-.06-1.18.2-2.23.65-2.86Z"/>
      <path class="cls-2" d="M154.17,41.31c-.64.03-1.47-.3-2.21-.97-.74-.67-1.21-1.5-1.32-2.21.64-.03,1.47.3,2.21.97.74.67,1.21,1.5,1.32,2.21Z"/>
      <path class="cls-2" d="M149.79,33.51c.7.19,1.49.84,2.09,1.81.6.97.87,2.02.78,2.82-.7-.19-1.49-.84-2.09-1.81-.6-.97-.87-2.02-.78-2.82Z"/>
      <path class="cls-2" d="M150.25,52.69c.48-1.05,1.19-1.81,1.86-2.1.18.77.04,1.86-.45,2.91-.48,1.05-1.19,1.81-1.86,2.1-.18-.77-.04-1.86.45-2.91Z"/>
      <path class="cls-2" d="M150.13,56.86c1.05.14,1.94.6,2.42,1.2-.59.46-1.55.69-2.6.56-1.05-.14-1.94-.6-2.42-1.2.59-.46,1.55-.69,2.6-.56Z"/>
      <path class="cls-2" d="M146.6,55.48c.88-.65,1.83-.93,2.54-.82-.18.77-.78,1.64-1.67,2.29-.88.65-1.83.93-2.54.82.18-.77.78-1.64,1.67-2.29Z"/>
      <path class="cls-2" d="M143.67,58.74c.26-.14.54-.28.83-.4.02,0,.03-.01.05-.02,0,0,.01,0,.02,0,0,0,0,0,0,0,.62-.26,1.46-.31,2.34-.09,1.03.26,1.87.83,2.29,1.48-.63.39-1.61.5-2.64.24-1-.25-1.81-.79-2.24-1.41-.13.12-.26.24-.38.36,1.15.67,2.15,1.56,3.02,2.7-.34.54-.51.81-.86,1.35-.66-1.5-1.47-2.74-2.44-3.77-.93,1.02-1.63,2.24-2.29,3.75-.34-.54-.51-.81-.85-1.35.87-1.14,1.77-2.01,2.88-2.67-.12-.12-.25-.24-.38-.36-.43.62-1.25,1.15-2.24,1.4-1.04.26-2.01.14-2.64-.24.42-.65,1.26-1.22,2.29-1.48.86-.22,1.68-.17,2.3.08.59.23.94.44.94.44Z"/>
      <path class="cls-2" d="M140.79,55.48c.88.65,1.48,1.52,1.66,2.29-.71.11-1.66-.17-2.54-.82-.88-.65-1.48-1.52-1.67-2.29.71-.11,1.66.17,2.55.82Z"/>
      <path class="cls-2" d="M139.87,57.41c-.48.6-1.37,1.07-2.42,1.2-1.05.13-2.01-.1-2.6-.56.48-.6,1.37-1.06,2.42-1.2,1.05-.13,2.01.1,2.6.56Z"/>
      <path class="cls-2" d="M132.31,45.89c-.11-.71.08-1.67.58-2.57.5-.9,1.18-1.53,1.8-1.74.11.71-.08,1.67-.58,2.57-.5.9-1.18,1.53-1.8,1.73Z"/>
      <path class="cls-2" d="M132.76,48.61c-.71-.12-1.55-.69-2.23-1.6-.68-.91-1.03-1.93-1.01-2.73.71.12,1.55.69,2.23,1.6.68.91,1.03,1.93,1.01,2.73Z"/>
      <path class="cls-2" d="M133.84,45.84c.56.5,1.02,1.47,1.2,2.63.17,1.17.01,2.25-.37,2.92-.56-.5-1.02-1.47-1.2-2.63-.17-1.16-.01-2.25.37-2.92Z"/>
      <path class="cls-2" d="M135.33,54.16c-.7.16-1.67-.05-2.59-.64-.92-.59-1.57-1.42-1.79-2.17.7-.16,1.67.05,2.58.64.92.59,1.57,1.41,1.79,2.17Z"/>
      <path class="cls-2" d="M134.8,54.73c1.04.21,1.91.74,2.35,1.37-.61.42-1.58.58-2.63.37-1.04-.21-1.9-.74-2.35-1.37.61-.42,1.59-.58,2.63-.37Z"/>
      <path class="cls-2" d="M137.6,55.6c-.67-.29-1.37-1.05-1.86-2.1-.48-1.05-.63-2.13-.45-2.91.67.29,1.38,1.05,1.86,2.1.48,1.05.63,2.13.45,2.91Z"/>
      <path class="cls-2" d="M135.52,35.32c.6-.97,1.39-1.62,2.09-1.81.09.79-.18,1.85-.78,2.82-.6.97-1.39,1.62-2.09,1.81-.09-.79.18-1.85.78-2.82Z"/>
      <path class="cls-2" d="M134.54,39.11c.74-.67,1.57-1,2.21-.97-.1.71-.58,1.54-1.32,2.21-.74.67-1.57,1-2.21.97.11-.71.58-1.54,1.32-2.21Z"/>
      <path class="cls-2" d="M132.66,36.47c.06-1.18.43-2.19.94-2.76.45.63.71,1.68.64,2.86-.06,1.18-.43,2.19-.94,2.76-.45-.63-.71-1.68-.64-2.86Z"/>
      <path class="cls-2" d="M131.58,37.14c.56.5,1.03,1.46,1.21,2.62.18,1.16.03,2.24-.35,2.92-.56-.5-1.03-1.46-1.21-2.62-.18-1.16-.03-2.24.35-2.92Z"/>
      <path class="cls-2" d="M129.57,39.91c.67.27,1.39,1.02,1.89,2.06.5,1.04.66,2.12.49,2.9-.67-.27-1.39-1.02-1.89-2.06-.5-1.04-.66-2.12-.49-2.9Z"/>
      <path class="cls-2" d="M152.87,56.47c-1.04.21-2.02.05-2.63-.37.44-.63,1.3-1.16,2.35-1.37,1.04-.21,2.01-.05,2.63.37-.44.63-1.3,1.16-2.35,1.37Z"/>
      <path class="cls-2" d="M154.65,53.52c-.92.59-1.88.8-2.59.64.22-.76.87-1.58,1.79-2.17.92-.59,1.88-.81,2.58-.64-.22.76-.87,1.58-1.79,2.17Z"/>
      <path class="cls-2" d="M156.47,50.13c-.92.59-1.88.81-2.59.64.22-.76.87-1.58,1.79-2.17.92-.59,1.88-.81,2.58-.64-.22.76-.87,1.58-1.79,2.17Z"/>
      <path class="cls-2" d="M131.73,48.6c.92.59,1.57,1.41,1.79,2.17-.7.16-1.67-.05-2.58-.64-.92-.59-1.57-1.41-1.79-2.17.7-.16,1.67.05,2.59.64Z"/>
    </g>
  </g>
</svg>