<?xml version="1.0" encoding="UTF-8"?>
<svg id="CLUB_LOGOS_KEYLINE" xmlns="http://www.w3.org/2000/svg" version="1.1" viewBox="0 0 215 215">
  <!-- Generator: Adobe Illustrator 29.5.1, SVG Export Plug-In . SVG Version: 2.1.0 Build 141)  -->
  <path d="M177.383,26.915s-25.407-13.676-69.743-13.676c-.047,0-.092.001-.139.001s-.092-.001-.139-.001c-44.352,0-69.746,13.676-69.746,13.676,0,0-11.354,62.755,3.785,108.294,11.47,34.505,61.336,63.69,66.099,66.414,4.763-2.724,54.628-31.909,66.099-66.414,15.138-45.539,3.785-108.294,3.785-108.294Z" fill="#f18a00"/>
  <path d="M61.903,33.218l-4.292,1.163,2.125,7.844-2.867.777-4.88-18.017,2.867-.777,2.018,7.451,4.292-1.163-2.018-7.451,2.867-.777,4.88,18.017-2.867.777-2.125-7.844Z" fill="#fff" stroke="#fff" stroke-miterlimit="10" stroke-width=".25"/>
  <path d="M81.829,18.493l2.952-.33,1.794,16.027,5.568-.623.282,2.523-8.521.954-2.076-18.55Z" fill="#fff" stroke="#fff" stroke-miterlimit="10" stroke-width=".25"/>
  <path d="M73.807,19.753l2.906,14.545c.105.524,0,.937-.302,1.252-.335.349-.961.65-1.601.778s-1.334.091-1.777-.103c-.399-.175-.655-.516-.76-1.04l-2.902-14.546-2.928.586,2.905,14.544c.185.74.533,1.37,1.041,1.864.422.434.98.813,1.77,1.045.794.255,1.84.28,3.126.023,1.287-.257,2.242-.681,2.878-1.222.64-.517,1.01-1.082,1.233-1.645.279-.651.359-1.367.245-2.121l-2.905-14.544-2.927.583Z" fill="#fff" stroke="#fff" stroke-miterlimit="10" stroke-width=".25"/>
  <path d="M94.843,17.23l2.968-.128.695,16.112,5.598-.241.109,2.537-8.566.369-.804-18.649Z" fill="#fff" stroke="#fff" stroke-miterlimit="10" stroke-width=".25"/>
  <path d="M123.763,30.901l-.112,1.481c-.043.526-.254.893-.627,1.113-.416.246-1.1.367-1.752.318s-1.309-.272-1.684-.578c-.332-.271-.485-.662-.451-1.181l.406-5.37.413-5.444c.045-.518.255-.881.624-1.099.416-.246,1.1-.367,1.752-.318s1.309.272,1.684.578c.335.274.488.668.452,1.194l-.107,1.417,2.976.225.106-1.404c.021-.762-.144-1.463-.5-2.076-.289-.532-.725-1.047-1.423-1.483-.696-.459-1.696-.765-3.005-.864-1.308-.099-2.343.052-3.1.401-.756.326-1.264.77-1.63,1.252-.444.552-.713,1.22-.807,1.977l-.223,2.949-.592,7.814c-.021.762.144,1.463.5,2.076.289.532.725,1.047,1.423,1.483.696.459,1.696.765,3.005.864s2.343-.052,3.1-.401c.756-.326,1.264-.77,1.63-1.252.444-.552.713-1.22.807-1.977l.038-.496.074-.974-2.976-.225Z" fill="#fff" stroke="#fff" stroke-miterlimit="10" stroke-width=".25"/>
  <path d="M139.212,22.192l.533-2.769,9.344,1.8-.533,2.769-3.213-.619-2.997,15.561-2.917-.562,2.997-15.561-3.214-.619Z" fill="#fff" stroke="#fff" stroke-miterlimit="10" stroke-width=".25"/>
  <path d="M132.586,18.455l2.946.385-2.416,18.509-2.946-.385,2.416-18.509Z" fill="#fff" stroke="#fff" stroke-miterlimit="10" stroke-width=".25"/>
  <path d="M155.877,31.016l4.873-6.58,2.689.758-6.944,9.171-2.154,7.647-2.86-.806,2.154-7.647-1.124-11.444,2.675.754.691,8.148Z" fill="#fff" stroke="#fff" stroke-miterlimit="10" stroke-width=".25"/>
  <g>
    <path d="M61.004,106.947c-.191-2.545-.164-6.667,1.453-11.329.977-2.817,3.259-6.574,4.373-8.189-.124-1.124-2.076-1.344-2.201-3.325-.308-4.878.708-7.969,1.278-9.361,1.048-2.556,2.123-1.349,5.932-6.026,1.762-2.164,1.614-2.457,2.928-4.038,1.478-1.777,3.162-3.206,8.691-6.435,6.231-3.639,9.346-5.458,12.596-6.252,2.744-.67,4.792-.694,8.777-.716,7.681-.041,15.094-.081,23.433,3.241,5.961,2.374,10.146,5.241,10.146,5.241,2.904,1.989,7.638,2.229,10.054,3.285,5.026,2.197,2.592.789,5.18,2.677,4.057,2.96,1.455,9.231,5.701,11.829,2.137,1.308,3.122-4.248,4.562-1.646.84,1.518,4.068,7.747,4.537,9.405.36,3.064.092,3.559-.313,4.806-.682,2.103-2.549,5.281-2.698,5.516-.65,1.021-.047,1.382-.667,2.455-.568.982-1.739,2.788-2.249,4.317-.883,2.649-4.205.902-4.765,3.356-.573,2.51-.132,4.475-1.2,8.23-1.76,6.185-3.008,11.132-3.973,12.182-1.706,1.859-4.987,10.87-6.965,13.584-1.422,1.951-4.424,4.663-4.733,4.93-1.15.995-5.032,8.318-5.929,2.043-.094-.661.264,1.866-.526,2.651-1.562,1.551-2.644,2.985-3.286,2.175-3.574-4.508-7.059-2.801-11.859-6.869-3.374-2.86-3.836-3.772-5.916-5.056-3.919-2.418-1.92-5.314-8.598-3.785-6.456,1.478-9.391,8.329-12.71,7.381-4.35-1.242.072-15.887-7.944-22.807-3.062-2.643-4.892-1.529-11.775-5.205-5.266-2.812-9.033-6.048-11.334-8.267Z" fill="#e46e0b"/>
    <path d="M153.734,83.642c.16.159.507.088.746.088,3.426,0,6.903-4.855,7.492-7.998.439-2.306.9-6.525.9-7.061,0-2.871.118-7.714-3.584-7.714-.825,0-2.604.599-3.428,1.318.01.171-2.731.078-2.289.565-.913,1.92-9.444,8.229-10.41,8.583.956,1.006,2.648,1.65,4.062,1.65,2.985,0,3.255-3.475,6.394-3.475.514,0,2.412.054,3.075.552-.477.935-5.869,3.62-6.977,3.62-.355,0-.639,1.736-1.032,1.621,0,0,.073,3.309,5.051,8.251Z" fill="#fff"/>
    <path d="M78.118,128.317c-.167-.153-.939-.175-1.405.038-.446.204-1.091.706-1.219,1.832-.601,5.253,11.236,11.044,14.18,11.257,5.084.367,11.258-4.865,13.546-10.854.568-1.447.895-4.329,2.144-5.512,2.29-2.168.642-4.175,1.309-8.518.051-.336-.057-1.685.039-1.932l-.249-1.797c-.541.343-.6,1.218-1.044,1.681-.695.728-.581,2.616-1.2,3.397-.411.537-.061,1.529-.321,2.126-.773,1.769-1.758,3.692-2.891,5.386-.286.427-.961.651-1.512,1.272-.044.191.167.379.167.921,0,2.814-3.884,3.164-4.984,3.197-.172.594.041,1.201.033,1.888-.228.25-.609.495-1.126.495-.795,0-2.572-1.002-3.335-1.944-.163.011-.304.258-.47.762-.551,1.675.728,3.049,1.437,4.104,0,0-.506-.131-1.021-.131s-11.977-4.56-12.885-6.516l.808-1.151Z" fill="#fff"/>
    <path d="M63.049,112.205c-.095-.193-.148-.41-.165-.637v-.002c-.077-.867-2.045-4.37-2.045-4.906s-.298-4.71-.298-5.247.046-1.632.252-2.438c.18-.699,1.478-5.072,1.65-5.39.119.185,1.107,3.301,1.302,3.386l1.733-.572c-.559.557-.876,2.017-.925,2.46-.153,1.29-.333,3.366-.333,3.904s.903,1.097,1.056,1.444c.774,1.585.181,1.402,1.455,2.999.174.094,1.53-.207,2.046-.207.879,0-1.816,1.273.036,1.393l.39,1.819c-.603.61.237.288-.239,1.317.043.062.293.444.677.87.729.811.58,2.347.58,3.136,0,1.372-3.827.49-4.325.783.041.046-.616-.572-.894-1.125" fill="#fff"/>
    <path d="M104.761,78.568c-.474-.202-.843-.343-.983-.343-.514,0-.793.031-1.021.277-.058.815.289,1.823-.928,2.3-1.165-.634-2.267-1.119-2.267-1.764,0-1.102,1.134-1.802,2.364-2.42,0,0,.573.091.861.129.482.201,1.029.694,1.974,1.821" fill="#fff"/>
    <path d="M66.947,75.229c-.518,1.706-1.263,3.33-1.263,3.755,0,1.21,2.066,4.554,3.9,4.64v.693c.016.535-.813,1.359-1.081,2.025v.266c1.051-1.187,1.354-2.113,2.689-2.978.061-.184-.124-.847.123-.849,2.256-.019,1.926-.667,2.493-.75.089-.073-.581,0-.152-.238.363-.202.075-.813.133-1.375,1.608-.895,1.918-2.149,2.4-3.584,0,0,.029-.145-.095-.326-.335.596-.688,1.29-1.026,1.878-.256.456-1.01.625-1.32,1.082-.436.645-.777.712-1.724.712-.518,0-1.358.423-2.172-.429-1.205-1.754-.291-1.417-.291-1.957,0-.83.881-1.294,1.297-1.294.51,0,.882.976,1.444,1.587.348-.201,1.61-.941,2.099-1.18,1.313-.642-2.595-2.64-3.263-2.64-.52,0-3.095,1.466-3.095.924,0-.469,1.181-1.079,1.31-1.252-.135.015-1.599.271-2.011.888" fill="#fff"/>
    <path d="M100.385,86.885l-7.057-.655c-.627.108-1.602.357-3.129.736.625-.155,1.39-1.065,3.787-1.456,1.353-.22,2.276.23,2.795.23.512,0,2.215-.735,2.781-.675-2.807-.298-4.285-1.569-4.285-3.154,0-.535.212-1.884.666-2.553l.804.391c-.345,2.48,1.509,3.145,3.293,3.413,1.936.292,4.787-.726,4.971-1.704-.261,1.388-3.143,2.554-3.913,2.918.198.349.315.507.83.507,1.903,0,4.116-2.797,5.249-2.797.514,0,.626-.007,1.275.685-1.139,3.419-5.836,3.74-8.066,4.114" fill="#fff"/>
    <path d="M86.646,124.371c-1.637-.579-2.891-3.804-3.117-5.634-.812-1.184-2.183-.047-2.786-1.613,2.119.614,5.042,1.522,7.164,1.518-1.257,2.604-1.322,3.756-1.261,5.729" fill="#fff"/>
    <path d="M71.557,118.249c.305,1.068.504,2.335,1.104,3.742-.6-.156-3.474-2.084-3.458-3.049v-1.194h1.504c.514-.02.682.422.851.5" fill="#fff"/>
    <path d="M88.903,92.95l-.081,1.391c-.043,1.063-4.13.358-5.037.843-3.397,1.816-8.601,7.551-8.406,8.918.415,2.9-.559,6.033-3.573,7.825-.311.184-.632.346-.95.481v.774c.238.087,1.51.416,3.304.847,4.584,1.096,12.589,2.847,15.513,2.847.087,0,.272-.005.52-.016h.002c.072-.004.152-.011.238-.016,1.441-.107,4.286-.555,4.286-2.331,0-.535-.033-.399-.27-.635-.648-.008-1.253.117-1.752.107-.165-.002-.32-.021-.458-.063v-.758c1.059-.907,2.347-1.427,3.426-2.101.154-.094.304-.193.45-.299.521-.371.989-.861,1.456-1.341.342-.348.681-.691,1.037-.976v-.77c-2.006-.142-1.382-2.134-2.038-3.126l.33-.346c.583.289,2.709,1.403,2.842,2.576.855-1.612.921-3.004,2.288-3.004.513,0,2.241.857,3.388,1.008-.656-.561-1.497-1.322-2.118-1.589-.79-.356-2.171-.364-2.553-1.093l-.063-.325v-.428c.046-.044.075-.09.103-.134.079-.127.134-.229.518-.229h0c.386,0,.749.462,1.208.85.153.13.317.254.497.347.064.032.136.056.21.075.023.007.045.012.067.018.059.012.118.026.178.035.026.003.051.007.074.011.071.011.139.019.211.029.032.002.065.006.096.009.07.008.14.013.21.024.046.006.095.013.14.021-.458-.867-2.768-5.299-3.367-7.679l-.033-.044c-.452-.268-1.024-1.189-1.459-1.65-.043-.046-.085-.09-.127-.125-.379-.34-.959-.784-1.49-1.116-.135-.081-.264-.158-.39-.224-.002-.002-.008-.004-.011-.006-.218-.114-.415-.196-.564-.223-.037-.006-.074-.01-.106-.01h-2.496c-.052.085-.11.171-.169.256-.876,1.278-2.26,2.552-3.124,2.89-.396.155-.765.211-1.055.217-.311.006-.588-.204-.692-.51l-.211-1.23ZM93.297,108.349c.217-.245.448-.694.884-.903h1.334c.031.303.233.409.233.948,0,.533-.441.723-.679.947h-1.771v-.992ZM91.632,105.925c-.517,0-.793-.248-1.03-.514.317-.869,1.156-1.422,1.441-1.422.513,0,.513.219.805.247v.765c-.428.459-.704.924-1.217.924M88.973,114.572c.218-.245.631-.459.866-.696.247-.008.527.023.744.274v.979c-.289.026-.497.242-1.61.21v-.767ZM88.973,111.052c.24-1.209.484-1.579,1.3-1.905,1.254,0,1.254.213,1.532.245.034.504-.818,1.687-1.33,1.663l-1.503-.003ZM88.028,108.069c-.516,0-.869-.224-1.326-.48v-.957c.222-.246.424-.707.938-.702h1.464c.235.241.261.317.261.853,0,.807-.795,1.287-1.336,1.287M85.041,111.937c0-.535.235-.615.476-.852h1.523l.472.52c-.165.355-1.156,1.191-1.442,1.191-.512,0-.774-.234-.774-.234-.223-.228-.254-.091-.254-.626M83.477,109.567s-.182-.207-.474-.25c.192-.742,1.011-1.675,1.525-1.675s.928.213.928.752c0,1.019-1.468,1.179-1.979,1.174M81.342,111.788c.23-.251.508-.497,1.023-.497s1.019.49,1.235.968c-.216.476-.515.749-1.03.749-.515,0-.72-.213-1.001-.248-.024-.289-.234-.717-.227-.973M80.106,109.71l.241-.765h.928c.236.229.472.523.465.778-.229.251-.711.496-.958.488-.242-.237-.446-.237-.677-.501M81.545,105.815c0,.538-.463.733-1.145,1.181-.268-.246-.297-.215-.297-.75s.467-1.172.941-1.396c.264.248.5.429.5.965M83.19,103.776c0,.535-.238.824-.68,1.264h-.738c-.024-.296-.228-.083-.228-.621,0-.535.439-1.043.923-1.502.276.246.722.322.722.859M89.473,96.692s.202.214.496.246v.695c.015.535-1.2,1.899-1.869,2.595-.332.35-1.118.419-1.662.793-.669.458-.812,1.228-1.445,1.803-.22.088-.261.307-.775.307s-.814-.487-1.028-.968c1.586-2.684,1.442-1.501,1.442-2.572.002-1.233,3.898-2.517,4.841-2.898" fill="#fff"/>
    <path d="M90.341,91.584c.272.017.236.464.236.464.025.536-.771,2.105-.771,2.643,0,.431.468.097.647.179,0,0-1.697.164-1.744.102-.117-.194.366-.955.357-1.15-.011-.237,1.253-1.557.037-1.487-.201.012-6.921.114-10.168,3.518-.537.563-3.502,5.455-3.907,6.177-.679,1.213-5.984-.251-5.984-.251,0,0,4.255.466,4.652-.47,1-2.36,4.231-6.266,5.965-7.344,1.102-.685,2.226-1.243,3.363-1.545,3.656-.969,6.128-.911,7.317-.836Z" fill="#fff"/>
    <path d="M70.984,110.12c-.872.077-.615-.124-.972-.553-.358-.43-.183-.98.135-1.268s.866-.173,1.223.257.034,1.528-.386,1.565Z" fill="#fff"/>
    <path d="M61.102,102.603c-.183-1.786.523-3.252.647-4.177.421-3.148,1.151-2.153,3.43-5.394.269-.383,1.101-.409,1.148-.161.401,2.142-4.578,5.555.761,7.738.241.098-1.425-.646-1.701-.698-1.882-.355-2.069,1.645-2.264,2.239-.291.882-.448-1.065-.739-.183-.707-.071-.574.707-1.281.636Z" fill="#fff"/>
    <path d="M75.568,130.143c-.219,1.035,1.063,3.122,1.813,3.678,3.442,2.549,10.526,6.247,14.081,5.071,4.794-1.585,7.605-6.048,9.975-10.213,2.841-4.993,2.217-4.505,3.982-6.687.797-.985.336,1.212.969.926-.609,1.779-.38,2.845,0,3.509.734,1.284,2.047,1.089,3.08,2.507.937,1.286.211,1.933.931,3.581,1.014,2.322,2.968,2.211,4.655,4.512.642.876,3.083,4.81,3.279,7.04-.753-.594-6.324-3.355-7.861-3.981-.285-.116-.235-3.263-.402-3.478-.148-.19-1.224,3.164-1.44,3.293-.12.047-.201.067-.456-.014-.372-.117-.454-3.671-.759-3.445-.427.316-.01,3.459-1.077,3.747-.732.197-1.107.333-1.823.747-.391.226.286-1.053.466-1.438.38-.815.43-1.065-.143-.492-.974.974-2.01,3.343-4.358,5.971-7.782,8.712-28.899,3.318-26.004-6.839-.066-.179.385-5.627.28-5.934-.593-1.736.085-2.444.239-2.67.376-.549.625-.921,1.026-1.142.326-.18.686-.355,1.74-.184-.245.005-.493.018-.871.2-.726.35-1.155.954-1.32,1.734Z" fill="#e46e0b"/>
  </g>
  <g>
    <g>
      <g>
        <path d="M81.191,89.118s-.183.227-.161.33l-.725.542c-.557.418-2.205,1.136-3.055,1.487-.432.183-.652.015-1.143.154-.601.169-1.429.725-2.154.996-.132.007-.366.168-.462.022-.549-.3.469-1.788.608-1.876.037-.022.579.3.762-.168.139-.374-.029-.454.139-.901.132-.344.286-.447.337-.476s.147-.081.469-.095c.425-.022,1.018-.418,1.07-.286.066.161-.681.703-.828,1.187-.095.3.015.484.059.667.747-.352.374-.095,1.15-.674,1.282-.96,3.356-.872,3.934-.909Z" fill="#101820"/>
        <g>
          <path d="M138.74,135.774c0-.52,2.135-6.498,2.691-8.312.03-.098.159-.106.207-.016.523.969.283,6.007.343,6.468.185.19.525-.055.804-.023.031.504.237.717.237,1.253,0,.511-.969,4.654-1.476,6.588-.031.118-.179.159-.266.073-1.243-1.233-2.217-3.032-2.217-4.049l-.324-1.981Z" fill="#101820"/>
          <path d="M143.433,132.974c-.287-.877-.548-1.363-.565-2.258-.008-.454.048-.922.141-1.694.088-.73-.067-2.742.013-2.987.086-.265.654.247,1.611-.189.063-.029.025-.007.776-.212.86-.234,1.293-.353,1.412-.423.662-.395.873-1.191.988-1.623.189-.712.073-1.102.071-1.835-.001-.475.043-2.604.494-2.682.237-.041.6.482.706.988.146.698-.278.982-.212,1.835.036.465.195.797.353,1.129.256.538.574.907,1.2,1.623.584.668.693.709.776.988.161.537.009,1.237-.423,1.623-.513.459-.982.082-1.412.423-.955.759.338,3.435-.423,3.882-.117.069-.361.022-.847-.071-.973-.186-1.3-.52-1.694-.353-.272.116-.39.392-.494.635-.324.76.072,1.242-.071,2.117-.097.594-.297.485-.565,1.27-.26.763-.138,1.062-.282,2.894-.095,1.204-.178,1.452-.353,1.694-.433.598-1.304.984-1.599.738-.466-.388,1.098-1.862,1.035-4.337-.034-1.337-.54-2.885-.635-3.176Z" fill="#101820"/>
          <g>
            <path d="M150.383,62.5c-.608.234-1.194.454-1.465.476.205-.066.447-.147.711-.234.249-.081.498-.161.755-.242Z" fill="#101820"/>
            <path d="M152.047,61.929c-.535.183-1.062.366-1.575.535.462-.168.916-.352,1.224-.447.022-.007.044-.015.066-.015.051-.015.095-.029.132-.037.051-.015.103-.022.154-.037Z" fill="#101820"/>
            <path d="M168.443,85.557c.022-1.934-3.898-8.396-4.535-9.656l.608-9.378c-.132-3.656-1.773-6.55-5.143-6.55-1.429,0-4.418.982-7.283,1.949-.015,0-.029.007-.044.007-.535.183-1.062.366-1.575.535-.029.015-.059.022-.088.037-.608.234-1.194.454-1.465.476-.198.059-.352.103-.454.11-3.224,1.026-9.224-1.502-8.711-1.502.095,0,7.502,1.136,7.451,1.018-1.773-.857-6.455-3.106-8.074-3.854-.564-.271-1.289-.139-1.854-.352-1.084-.403-2.242-1.37-3.297-1.802-3.399-1.392-7.898-3.392-11.437-3.861.176.718,8.301,5.151,6.77,9.275-.19.506-.198,1.121.044,1.597.784-.037,2.638-.161,3.048.952-.791.586-2.169,1.641-2.682,1.641-.52,0-.689-.447-1.106-.586-.791-.264-1.553-.637-2.227-.974-3.224-1.627-4.572.278-4.55.432.286.359,2.257,7.063,2.55,7.429.828.286,2.323-.183,3.15.103.711.103,1.414.205,2.125.3-.557.205-1.663.513-3.033.308-1.165-.176-3.128,1.011-3.612.703-.454-.462.198-2.586-.256-3.048-.308-.813-.498-1.517-.535-1.986-.344-.506-.352-.747-1.26-.747-.513,0-3.876,4.183-4.162,5.224-.11.403-.176.813-.22,1.224-.388-1.062-.821-2.183-.711-2.806.154-.908,1.172-3.898.139-3.693-.454.088-5.319-.469-5.319-.469-.557,1.011,1.341,3.89,2.689,5.934-.681.125-1.986.476-1.986,1.026,0,.542,1.026,1.289,1.026,1.824,0,1.744-2.388,3.759-3.912,3.759-.374,0-2.454-1.033-3.751-1.59.022.022.044.051.059.073-.022-.022-.051-.051-.073-.081-.469-.19-.828-.337-.967-.337-.513,0-.791.037-1.018.278-.059.813.286,1.824-.93,2.301-1.143-.623-1.7-1.165-1.714-1.795l-.007-.037v-.015l-.066-.447c0-.147.015-.271.051-.374v-.007s0-.007.007-.015c0-.007.007-.015.015-.022,0-.007.007-.015.007-.022.007-.029.022-.051.037-.073.007-.015.015-.029.029-.044,0-.007.007-.022.022-.037,0,0,0-.007.007-.015.337-.403,1.062-.418,1.707-1.282h.007c.308-.007.564.007.85.132h.007c.081.007.132.015.154.015-.513-.659-1.509-.681-1.509-.681-1.092.432-2.806,1.282-3.319,1.282s-.41-.432-.923-.432c-2.989,0-3.392,5.744-6.286,6.301-.286.403-.3,1.143-.176,1.531-.22.454-.733.703-1.253.835-.081.022-.154.037-.227.051-.198.037-.396.059-.571.073-.176.007-.33.015-.447.015-.579-.044-3.04-1.092-5.707.117-3.59,1.626-4.425,2.535-4.03,2.828,0,0,7.744-1.78,10.089-.579.007,0,.007.007.015.007.066.029.132.066.19.11-.007.007-.022.007-.044.022l-.007.007c-.813.278-10.477,2.916-12.917,4.462-2.879,1.824-4.242,2.103-4.081,1.905.52-.623,1.267-1.67,1.121-1.707-.366-.088-.476-.637-.52-1.165,1.744-2.462,1.377-1.282,1.619-2.374.242-1.084,2.601-1.707,3.729-2,.212-.498.696-1.253,1.451-2.279.667-.645,1.333-1.289,2-1.934.051-.227,1.773-1.245,2.572-1.531.696-.176,1.392-.352,2.081-.528-1.055.44-2.103.872-3.158,1.304-.784.769-1.568,1.546-2.359,2.315-.256.256-.52.506-.777.762-.3.293-.506.674-.571,1.092l-.051.344c1.465-1.143,2.74-1.626,4.762-2.301,1.033-.337,3.465-.791,4.169-1.202,1.502-.879,3.854-2.147,5.041-3.671.432-.549-2.081.242-3.517.725-.659.22-1.377.139-1.971-.22-.733-.44-1.714-1.011-2.476-1.165-.52-.103-4,2.095-4.506,2-.396-.081,2.63-2.117,2.293-2.176-.205-.037-.403-.073-.579-.11-.403-.073-.806.037-1.121.3-.982.821-3.062,2.359-3.502,2.835h-.007c-.051.132-.11.271-.176.425.037.015-.037.359-.176,1.399-.044.33-.081.608-.103.813-.249.366-.498.733-.747,1.099-.696.396-1.385.791-2.081,1.187.725-.615,2.139-1.48,2.689-4.447,0,0-1.575.674-2.169.901.637-.52,1.641-1.517,2.279-2.037.344-.337,1.319-1.407,1.59-3.143v-.007c-.469-1.07-.366-2.227-.952-2.594-3.553-2.227-5.898-2.388-7.385-1.956,0,0-.015.007-.044.015-.015.007-.029.015-.051.022-.11.044-.308.11-.513.19-.037.015-.066.029-.103.044-.242.095-.476.198-.571.271-.176.125-.909.601-.909,1.07,0,.454,2.139-.308,3.136-.564.015,0,.022-.007.029-.007.183-.044.315-.073.396-.073h.015c.681.015,2.183,1.253,2.213,2.117-.388.388-1.209,1.289-1.253.879-.125-1.114-1.062-1.788-1.568-1.788-.418,0-1.18.264-1.583,1.209-.506,1.187-.403,1.839.425,2.784.777.894,1.964.733,2.484.733.945,0,.982-.366,1.414-1.011.308-.462,1.062-.63,1.319-1.084.337-.586.696-1.282,1.026-1.876.125.183.095.322.095.322-.484,1.436-.791,2.696-2.396,3.59-.337.051-.066.769-.418,1.414q-.007,0-.007.007c-.051.066-.103.125-.168.176-.022.007-.051.007-.081.015-.212.168-.388.3-.527.388-.051.037-.11.081-.168.139-.286.103-.652.183-1.106.22-.242.022-.059.667-.125.85-1.333.865-1.634,1.788-2.689,2.975v-.264c.271-.667,1.099-1.487,1.084-2.022v-.696c-1.839-.088-3.282-2.821-3.282-4.975,0-1.282.93-3.517,1.048-3.832q.007-.007.007-.015v-.015c-.007,0-.007.007-.015.007-1.597.945-2.645,4.887-2.813,6.294-.264,2.176-.476,5.158,1.451,6.623-.051,1.524-2.63,3.619-4.301,4.477-1.106-.85-2.132-2.396-5.458-3.649l-2.667-.637c1.377,1.202,7.81,4.337,7.81,5.781,0,.542-.791.161-1.311.161-.513,0-14.99-4.616-16.873-5.033-.352-.081,12.375,4.645,12.375,5.18s-2.176.103-2.689.103-10.008.095-11.942.645c2.161-.125,13.884.066,15.906.996-.681.432-4.425.938-4.337,1.238l5.444-.315c.601.037,1.165.601,1.165,1.429,0,.535-.132,1.561-.52,1.392-4.836-2.037-11.788-2.682-15.122-2.205,5.693.198,14.536,2.608,15.371,3.443.037.22.293,1.773.059,1.744-12.953-1.964-14.192-1.048-14.192-1.048,0,0,14.17,2.345,14.463,3.114.081.22.967,4.403.967,4.726,0,.762-.352,1.634-1.07,2.315-3.216,3.062-7.048,8.792-7.627,10.426.52-.476,6.674-9.986,9.217-10.059.337-.007.835,1.011.52,1.297-2.535,2.279-4.652,6.447-4.909,6.982.41-.564,3.744-5.187,5.707-6.228.132-.073.293-.029.366.11.125.22.388.549.579.762.117.139.132.337.037.484-.96,1.429-3.231,5.121-3.231,6.579,0,.535,2.359-4,4.088-5.663.491-.476,2.198.227,2.769.234.366.608.777,1.245,1.311,1.619.667.469.315,1.854.747,2.579,1.165,1.934,3.693,3.062,5.29,3.062.513,0,.586-.037.821-.3-.41-1.561-1.443-4-1.443-4.535,0-1.744,1.561-2.279,2.037-2.037,6.821,5.788,2.396,11.708,2.161,12.052-.601.879-.007,2.081.242,2.44,1.224,1.758,9.165,5.913,13.73,4.821,0,0-1.912-2.286-1.648-4.118.081-.527.264-.813.425-.828.762.945,2.542,1.949,3.341,1.949.513,0,.894-.249,1.121-.498.007-.681-.205-1.289-.029-1.883,1.099-.037,4.982-.388,4.982-3.202,0-.542-.212-.725-.169-.923.549-.615,1.231-.843,1.509-1.267,1.136-1.692,2.125-3.619,2.894-5.385.264-.601-.088-1.59.322-2.125.615-.784,1.37-3.619,2.066-4.345.161-.168.242-.125.308-.029.147,1.143.205,3.722-1.077,8.125-.813,1.399-1.451,2.63-1.568,3.443-.073.52.571.366.571,2.037.007,1.59,1.224,2.359,1.414,2.733.388.74-1.106,2.308-.286,4.081.286.63,2.081,1.106,2.506,2.073.205.813.044,2.865.425,3.084.286.168.571-2.865.52-4.601.571.418,1.18.93,1.78,1.495v.007c.088.286.469.923.557,1.385.066.33.205,1.136.146,1.993-.029.418-.125,1.092-.22,1.092l1.736.813c.308.22,1.744.865,1.744.865.183-.125-.249-1.048-.491-1.597-.125-.286-.234-.476-.418-.813-.234-.418-.403-.725-.52-.945.652.843,1.216,1.678,1.619,2.432.322.615,6.631,5.495,7.708,5.978l5.751,2c-.271-.139-4.63-2.366-4.909-4.85-.125-1.114.337-3.172.183-4.484-.337.161-.945,1.883-1.311,2.894-.117.322-.542.388-.747.117-1.026-1.333-3.356-4.455-3.356-5.26,0-.542,1.868.821,2.022,1.78.059.403.623,1.795,1.136,1.795.564,0,.982-1.648,1.297-3.531.015-.073.007-.147-.015-.205-.432-1.194-1.077-2.257-1.37-3.539-.037-.161-.007-.337.073-.491.718-1.253.33-6.359.015-7.876.52.059,3.121,4.997,2.857,5.59-.037,1.531-.161,2.359-.322,2.931-.073.271-.11.549-.095.835.095,1.978.147,4.227,1.414,4.279.168.007.293.154.271.322-.117,1.158-.593,3.414-.381,4.44l5.605,6.191c.667.733,1.868.689,2.41-.139.674-1.04,1.238-3.414,1.238-3.414-1.561-1.685-3.737-3.898-3.832-5.143-.051-.623-.623-6.433-1.26-8.235,2.249,5.341,4.682,10.983,4.682,10.455.007-.513-1.509-9.715-1.531-11.422,0-.066.088-.103.139-.051.418.396,1.722,1.421,1.722,1.421-.007.615.264,7.817.264,7.817,1.495,6.872,2.257,7.817,2.689,6.022.154-.637,1.517-.601,1.605-1.773.029-.418.799-2.388.828-2.857.161-2.975-2.484-4.191-2.286-7.063.059-.886,1.568-4.953,1.912-5.26.322-.549.44-4.008,1.143-4.997.081-.454,3.443-1.421,3.678-2.279.154-.615-.125-1.502-.022-2.066.11.564,1.136,2.762,1.392,3.465.696-.205.769-3.253.769-3.788,0-.498.813-4.923,1.062-5.773.015-.051.088-.051.11-.007.33.769.777,1.605,1.678,2.227l.183-.96c.044-1.231.982-2.037,1.099-2.073v3.385c-.015.542-.63,3.092-.63,3.634,0,.535.535,3.019,2.198,3.568,0,0,1.517-2.769,1.517-5.605,0-.498.681-2.388.791-2.96.022-.227-.96-.996-.96-1.209,0-2.198,2.095-1.04,1.568-3.509-.542-2.52-1.289-5.048-2.117-7.305-.132-.22-.63-.484-.908-.454-.029.725-.234,1.26-.234,1.795s.615.645.615,1.18-.462.945-.564,1.37c-.073.403.256.879.154,3.238,0,0-.615-1.92-.615-2.462,0-.161-.747-6.418-1.341-6.777-.843,1.253-1.084,7.429-1.084,7.429,0-.542-2.059-7.239-1.656-8.235.337-.799,2.022-1.055,2.022-2.293,0-.418-.63-1.707-1.128-2.799h-.007c-.139-.308-.168-1.018-.366-.843-2.806,2.44-4.367-.44-4.623-.425-.352.484-.63.901-.843,1.268-.476.813.242,2.323.242,3.238,0,.535-4.176,3.348-4.176,3.89,0,.535,7.92-1.004,7.92-.469,0,.542.762,7.839.762,8.382,0,.535-6.022,6.455-5.59,5.554.366-.755,3.473-8.184,3.473-8.777,0-.542-3.282-2.469-3.319-3.407-.476-.029-1.099-.242-1.612-.242s-3.839.359-4.074.615c.205.916,3.868,2.169,3.868,2.711,0,1.158-1.736,3.451-2.015,3.817-.652.872,1.539,10.602,1.187,11.356,0,0-2.879-10.477-2.879-11.312l.051-.733-4.381-.784c0-.527,5.773-.945,5.773-1.487,0-.535-4.711-2.147-4.711-2.682,0-.542,4.55-.674,8.111-8.213.059-.484-5.539-4.608-5.803-4.242-.103.154-.256,3.004-.396,3.224-.139.234-.322,2.125-.322,2.586,0,.542-.154,1.458-.154,2,0,.088-.711.762-.799.872-.952,1.143-2.432-.125-3.297-1.341-1.136-1.612-3.597-1.561-1.876-3.766.469-.22,3.788,5.861,5.173,1.011.154-.549-.791-2.081,0-2.081.513,0-3.465-7.73,6.315-.601.418.3.63-3.019.63-3.019v-.74c-.513-.755-3.062-3.092-4.975-6.191-.557-.352-1.114-.711-1.67-1.062-.843-.982.425-1.106-.418-2.088-1.311-.462-2.447-1.846-3.751-2.315-1.282-.923-4.843-1.78-6.125-2.696,1.407.381,1.964-.139,3.363.249.996.19,1.282.696,2.279.886,0,0,1.766.784,1.773.784.125.11.447.403.506.462,0,.007.059.059.066.059.139.132,1.89,1.729,2.286,2.088-.733-2.396-.74-5.011.821-7.59.344-.571-1.172-.667-1.561-.989.952-.147,1.971.073,2.835-.022.879-1.18,1.59-.982,2.418-.982,1.648,0,.718.125,3.033,1.626.337.212.879.007,1.26.147.821.264,1.634,1.18,2.476,1.37.542.11,1.099.044,1.663-.022l.967.029,2.967,4.601s-1.319-3.605-.835-4.315c.623-.909,6.418-4.557,6.894-5.495-.659-.498-2.557-.549-3.077-.549-3.136,0-3.407,3.473-6.389,3.473-.344,0-.542-.037-.659-.11l-.007-.007c-.059-.037-.095-.081-.117-.139-.022-.059-.037-.117-.044-.19-.103-.894.205-1.788.806-2.469,2.235-2.52,6.74-7.957,11.034-8.682,3.656-.615,4.63,4.323,4.63,7.195,0,.535-.454,4.755-.894,7.063-.593,3.143-4.066,8.001-7.495,8.001-.234,0-.872-.418-1.092-.44.029.293.308.843.308.843l1.583.205c1.128.146,3.89.234,8.074-5.854l2.249,5.392c1.48,4.792.703,6.594.586,8.345l1.443-4.352c0-2.11-1.692-6.653-2.33-8.286.85,1.685,3.143,5.971,3.143,5.971ZM72.546,86.136c.132-.366.256-.733.388-1.099.432-.432.872-.865,1.304-1.297-.344.535-.681,1.077-1.026,1.619-.322,1.128-.996,3.92-1.319,5.048.103-.872.315-3.18.652-4.271ZM93.984,85.513c1.355-.22,2.279.227,2.799.227.513,0,2.213-.733,2.777-.674-2.806-.3-4.286-1.568-4.286-3.15,0-.535.212-1.89.667-2.557l.806.388c-.344,2.484,1.509,3.15,3.297,3.414,1.934.293,4.784-.725,4.967-1.7-.264,1.385-3.143,2.55-3.912,2.916.198.344.315.506.828.506,1.905,0,4.118-2.799,5.253-2.799.513,0,.623-.007,1.275.689-1.143,3.414-5.839,3.737-8.067,4.11l-7.055-.652c-.359.059-.821.169-1.436.322l-.11-.396c.535-.242,1.238-.484,2.198-.645ZM67.234,115.977c-.623,0-1.048-.3-1.282-.528q-.007-.007-.015-.015c-.022-.029-.044-.066-.081-.095.007.015.022.029.029.044-.022-.022-.051-.051-.059-.073-1.026-1.341-2.645-3.524-2.909-4.513-.344-1.275-1.055-2.308-1.18-4.044-.066-.982.183-1.341.095-2.059-.073-.645-.703-1.685-.733-2.088v-.007c-.168-1.663.425-3.033.608-3.964.015-.066.029-.139.037-.205,0-.007.007-.022.007-.029.418-3.114,1.15-2.139,3.429-5.37.264-.381,1.099-.41,1.143-.161.388,2.066-4.235,5.319.242,7.51-.447-.198-1.026-.44-1.18-.469-1.868-.352-2.066,1.619-2.264,2.227-.037.205-.073.418-.11.645-.674,4.118,1.861,5.825,2.374,5.825.879,0,1.004-1.495,2.315-.967.762.308.432,1.07.161,1.304-.645.564-1.7-.579-2.183.447.044.066,3.297,4.227,3.297,5.011,0,.916-.952,1.363-1.744,1.575ZM69.205,118.944v-1.194h1.502c.513-.022.681.418.85.498.308,1.07.506,2.337,1.106,3.744-.601-.154-3.48-2.088-3.458-3.048ZM70.143,108.299c.322-.286.872-.176,1.224.256.359.432.037,1.531-.381,1.568-.872.073-.615-.125-.974-.557-.359-.432-.183-.982.132-1.268ZM86.65,124.373c-1.641-.579-2.894-3.81-3.121-5.634-.813-1.187-2.183-.051-2.784-1.612,2.117.608,5.041,1.517,7.165,1.517-1.26,2.601-1.326,3.751-1.26,5.729ZM108.431,132.132c-.388-.703-.901-1.436-1.524-3.019.733.564,1.414.74,1.539.667.19-.117.073,1.165-.015,2.352ZM124.631,81c.608,1.473,8.374,9.671,8.374,9.671-.198.381-6,.19-6.008.205-.059.11.015,2.081-.579,4.901-.088.41-2.747.711-2.865,1.15-.132.506,2.388,1.172,2.418,1.707.256,4.154,4.916,8.85,5.004,9.019-.007,0-.015-.007-.022-.015-.088.608-1.084.835-1.934.872-.491.022-.777.557-.528.982.799,1.355,1.59,2.711,2.388,4.074.498,1.729.974,3.378,1.473,5.107.066,2.22.132,4.44.198,6.66,0,.088-.132.095-.139,0-.125-1.136-.249-2.205-.374-3.334l-3.685-9.503c-.557-.982-1.106-2.103-1.605-3.348-.315-.784-.564-1.539-.777-2.257-1.004-.813-1.927-1.399-1.934-.315l4.462,12.016c-.234.081-2.594-3.619-3.854-5.011-.769-.857-1.224-1.956-1.311-3.106-.022-.271-.044-.528-.073-.777-.051-.432-.542-.769-.542-1.304,0-.542.623-.322.623-.857,0-.542-9.166-7.356-9.971-7.187-1.517-.689-.952-1.92-1.802-1.92-.513,0-1.465,2.784-6.814.821,0,0-.154-.198-.154.344,0,1.605,2.74,2.447,3.641,2.821,2.088.857-.469,1.224,1.18,3.883.359.564,6.052,2.945,6.674,3.429.359.271,6.008,3.392,6.008,5.539,0,.462,2.257,4.066,2.967,5.803.073.19-.154.352-.308.22l-3.795-3.341c-.41.256-.718.535-.718.857,0,.542-.403.813-.212,4.11-.887.227-4.814-5.18-1.773,6.645,0,.542-1.209,1.216-1.011,3.465-.916-10.25-3.531-6.924-4.564-7.356-.139-.051-.278,0-.315.139-.476,1.832.659,5.803-.344,5.004-.916-.725-3.143-7.605-3.253-8.037-.11-1.414-.22-2.835-.33-4.249-.249-1.971-1.443-6.924-3.48-7.063,4.33.308,3.561,3.07,3.978,4.022.469,2.081.938,4.169,1.414,6.25.418.418,1.268,1.033,2.029,1.605.799.601,1.927.513,2.594-.227,1.37-1.502,1.546-2.85,1.839-3.18.689-.799,2.264.681,2.315.484.286-1.026-.125-5.048-.125-5.583,0-.564-2.183-3.956-2.674-3.956-1.876,0,.967,3.15-1.685,3.15-.513,0-1.846,3.26-2.154,2.799-1.311-1.905,2.257-7.253-.857-8.433-.542-.22-7.041,1.421-7.041-.212,0-.865.322-1.495,1.509-1.319.396.059.791-.117.967-.476l.623-1.209c.198-.388.103-.879-.256-1.128-.696-.484-1.678-.674-2.396-1.319-.11-.11-.256-.176-.41-.227-.022-.007-.037-.015-.059-.022-.117-.037-.249-.059-.381-.073-.044-.007-.095-.015-.139-.022-.073-.007-.139-.015-.212-.022-.029-.007-.066-.007-.095-.015-.073-.007-.139-.015-.212-.029-.022,0-.044-.007-.073-.007-.059-.015-.117-.022-.176-.037-.022-.007-.044-.007-.066-.015-.073-.022-.147-.044-.212-.081-.176-.088-.344-.212-.498-.344-.454-.388-.821-.85-1.209-.85-.381,0-.44.103-.513.227-.029.044-.059.088-.103.132v.432c.015.073.037.183.051.271.015.044.037.088.066.132.029.037.051.073.088.11.037.044.088.081.132.117.044.029.081.059.125.088.051.037.11.066.176.095.044.022.095.044.139.066.073.022.139.044.212.073.051.015.103.029.154.044.081.022.161.044.242.066.059.015.11.029.168.044.117.029.227.051.344.081.088.022.176.051.264.073.037.007.081.022.117.029.117.037.234.081.337.125.615.271,1.458,1.033,2.117,1.59-1.15-.147-2.879-1.004-3.392-1.004-1.363,0-1.429,1.392-2.286,3.004-.132-1.172-2.257-2.286-2.843-2.579l-.33.344c.659.996.029,2.989,2.037,3.128v.769c-.352.286-.696.63-1.033.974-.469.484-.938.974-1.458,1.341-.147.11-.3.205-.447.3-1.084.674-2.374,1.194-3.429,2.103v.755c.139.044.293.066.454.066.506.007,1.106-.117,1.758-.11.234.242.264.103.264.637,0,1.773-2.843,2.227-4.286,2.33-.081.007-.161.015-.234.015-.249.015-.432.022-.52.022-2.923,0-10.931-1.751-15.518-2.85-1.795-.432-3.062-.762-3.304-.85v-.769c.322-.132.645-.3.952-.484.11-.066.212-.139.322-.205.227-.161.498-.366.806-.608,2.125-1.839,2.799-4.513,2.447-7.012-.198-1.363,5.004-7.099,8.404-8.916.381-.205,1.319-.198,2.286-.198l.689.44c.513.344,1.018.081,1.517-.051.337-.088.593-.872.769-1.48.015-.029.022-.051.022-.073,0-.029.015-.066.044-.125v-.007c.212-.403,1.062-1.421-.007-1.355-.198.015-6.924.117-10.169,3.517-.535.564-3.502,5.458-3.905,6.176-.681,1.216-5.986-.249-5.986-.249,0,0,4.257.469,4.652-.469,1.004-2.359,4.235-6.264,5.964-7.341,1.106-.689,2.227-1.245,3.363-1.546,3.656-.974,6.132-.916,7.319-.835.271.015.234.462.234.462.029.535-.769,2.103-.769,2.645.286-.007.659-.066,1.055-.22.865-.337,2.249-1.612,3.121-2.887.059-.088.117-.176.168-.256h2.498c.029,0,.066,0,.103.007.154.029.352.11.564.227h.015c.125.066.256.147.388.227.535.33,1.114.777,1.495,1.114l.125.125c.418.432.938,1.202,1.385,1.487.029.059.059.117.088.169,0,.007.007.007.007.007h.007l.015.007c.059.037.125.051.183.051,0,0,3.722-.586,6.953,0,.498.095.843-.637,1.363-.637.513,0,2.367,1.289,2.879,1.289.52,0,2.388-2.037,2.388-2.572,0-.857-.674-1.956-1.495-2.205-.029-.549.916-2.264.615-3.224-.19-.601-3.297,1.311-3.297.132,0-.542,3.517-1.487,2.923-2.608-.366-.689,1.678-2.432,2.982-3.385-.454-.799-4.118-.322-5.473-.183,1.714-.777,6.623-2.345,6.814-1.846.74,1.949.857,4.462.711,6.066-.11,1.224-2.747-.476-3.128.462-.872,2.169.293,2.689.388,3.758,0,0-.952,5.385-.952,5.927,0,.645,6.118,2.931,6.462,3.158-.513.088-5.085-1.348-5.48-1.143-.19.205-.161.022-.161.557,0,1.297,2.191,1.612,2.879,1.612.52,0,4.381,4.799,5.971,4.191l.037-4.462c0-.418-.293-.784-.711-.865-3.443-.718-4.286-3.671-4.125-3.802.139.044,3.407,1.898,4.052.791.125-.242-1.114-2.674-2.161-3.971-.469-.579-1.48-2.44-1.568-2.484l1.839.249,3.854,2.857c0-.418-1.648-2.865-1.714-2.997-.696-1.59,6.308.908,6.308.637,0-.403-5.246-4.345-4.989-4.689-.117-.418-.264-.879-.432-1.399,0,0-2.967-4.118-3.839-4.865,1.458.41,2.257,1.495,3.715,1.898ZM143.313,68.779c-.52,0-2.271-.865-2.784-.865-.256,0-1.084-.11-.755,1.268-.528-.205-3.238-2.169-3.407-2.403-.059-.462-6.191-9.796-6.191-9.796.923.425,2.037.747,2.777,1.121.491.242.549.93.857,1.253.484.513,1.421.747,1.788,1.311,2.835,4.396,6.066,6.396,9.151,6.396.52,0,2.542-.432,3.715-.725-1.319.557-3.553,2.44-5.151,2.44Z" fill="#101820"/>
            <path d="M101.589,51.496l-1.648.418c.022-.015.044-.022.066-.029l1.583-.388Z" fill="#101820"/>
            <path d="M115.26,53.364c-1.876-.029-3.619.901-4.564,1.766.249.711,4.975,1.824,5.803,2.337.689.432,1.502,1.495,1.81,2.139.286.615-6.286-.725-6.242-.11.139.183,6.938,2.462,7.07,2.696.088.447.96,1.971,1.033,2.374.081.403.073.923-.073,1.297.132.169.557.396.96,1.355-.293.051-.183.271-.703.271-.513,0-1.246-.484-1.868-.593-.923-.161-4.462-3.143-5.649-4.227,0-.234-5.429.366-4.945-3.934.513-4.506-4.491-5.077-6.022-4.323-2.029,1.011-5.165-.381-5.466-.447.3-.388,1.612-1.473,2.029-1.7l1.575-.381c-.022.007-.044.015-.066.029l1.648-.418-1.583.388c1.583-.835,3.781-.711,5.011-.711,2.066-.007,5.451.139,7.766.256,1.561.081,3.099.337,4.594.769l2.33.667,1.736.498.791.528c-2.081.513-2.52-.432-6.975-.528Z" fill="#101820"/>
            <path d="M101.589,51.496l-1.648.418c.022-.015.044-.022.066-.029l1.583-.388Z" fill="#101820"/>
            <path d="M121.443,53.364l-1.736-.498c.974.176,1.678.352,1.736.498Z" fill="#101820"/>
            <path d="M125.197,56.985c1.729,1.367.511,4.684,2.861,5.399-.062.844-7.579-2.676-4.326.006.402.332-1.997,1.315-2.821,1.043-.386-.133-1.162-2.157-1.342-2.43-1.363-2.061,3.639-2.157,1.348-3.5-.178-.11-6.374-1.877-6.588-2.34l2.556-.776,4.558.884c.346.824.249.892.249,1.052,0,.538,2.357-.284,2.871.117l.635.545Z" fill="#101820"/>
            <path d="M110.9,76.655c.334.787-2.599,2.718-3.301,1.015-1.718-4.166-2.666-5.33-9.168-2.68,0,0-2.318-1.266-.301-2.536,3.389-2.132,9.779-.301,10.517-.301l2.253,4.502Z" fill="#101820"/>
            <path d="M102.338,96.36c-.007-.365.453-.721.682-.897.437-.058.962-.275,1.481-.275.514,0,.86-.054,3.305.217,1.825.214,4.613.214,6.472,2.052-.466.294-.719.306-1.233.306-.51,0-1.47-.428-1.981-.428,0,0-2.725,1.145-3.5,1.092-2.789-.191-3.857-1.346-4.742-1.526-.178-.036-.48-.361-.484-.542Z" fill="#101820"/>
            <path d="M82.51,105.041h-.738c-.024-.296-.228-.083-.228-.622,0-.534.44-1.043.924-1.502.276.246.722.322.722.859,0,.535-.238.824-.681,1.264h0Z" fill="#101820"/>
            <path d="M90.603,105.41c.317-.869,1.155-1.421,1.441-1.421.512,0,.512.218.805.247v.764c-.428.46-.704.924-1.217.924-.517,0-.793-.247-1.03-.515h0Z" fill="#101820"/>
            <path d="M80.4,106.997c-.267-.246-.297-.215-.297-.75s.466-1.172.941-1.396c.264.248.499.429.499.965,0,.538-.461.733-1.143,1.181h0Z" fill="#101820"/>
            <path d="M86.701,106.631c.223-.247.425-.708.94-.702h1.461c.236.242.261.317.261.853,0,.807-.795,1.286-1.335,1.286-.517,0-.871-.223-1.327-.479v-.958Z" fill="#101820"/>
            <path d="M94.18,107.445h1.335c.03.303.231.409.231.948,0,.534-.44.723-.679.947h-1.77v-.992c.217-.245.447-.693.883-.903h0Z" fill="#101820"/>
            <path d="M83.476,109.567s-.182-.207-.474-.251c.192-.742,1.011-1.675,1.525-1.675s.928.213.928.751c0,1.02-1.469,1.179-1.979,1.175h0Z" fill="#101820"/>
            <path d="M81.276,108.945c.236.23.473.523.465.778-.229.251-.713.496-.958.488-.242-.237-.447-.237-.677-.501l.242-.765h.928Z" fill="#101820"/>
            <path d="M90.272,109.147c1.255,0,1.255.214,1.535.245.031.504-.82,1.688-1.332,1.662l-1.503-.002c.24-1.209.484-1.579,1.3-1.905h0Z" fill="#101820"/>
            <path d="M85.517,111.086h1.521l.472.519c-.165.356-1.154,1.191-1.441,1.191-.512,0-.775-.234-.775-.234-.223-.228-.253-.091-.253-.626s.234-.614.476-.851h0Z" fill="#101820"/>
            <path d="M82.364,111.292c.514,0,1.021.49,1.237.967-.216.476-.516.75-1.03.75-.516,0-.721-.213-1.003-.248-.026-.29-.234-.717-.226-.974.229-.249.508-.495,1.022-.495h0Z" fill="#101820"/>
            <path d="M151.893,61.965c-.037.007-.081.022-.132.037-.022,0-.044.007-.066.015-.469.139-1.333.469-2.066.725-.264.088-.506.169-.711.234.271-.022.857-.242,1.465-.476.029-.015.059-.022.088-.037.513-.168,1.04-.352,1.575-.535-.051.015-.103.022-.154.037Z" fill="#101820"/>
            <path d="M89.969,96.935v.696c.015.535-1.202,1.898-1.868,2.594-.33.352-1.121.425-1.663.799-.667.454-.813,1.224-1.443,1.802-.22.088-.264.308-.777.308s-.813-.491-1.026-.974c.293-.491.52-.85.703-1.121l.015-.015c.374-.542.557-.703.645-.806.022-.022.037-.044.044-.059.059-.088.037-.183.037-.571,0-.051.007-.103.022-.147.007-.051.029-.103.051-.147.022-.051.051-.103.088-.154.103-.154.264-.315.462-.469.11-.081.227-.169.352-.249.212-.139.454-.278.703-.41.088-.044.169-.088.256-.125.352-.176.711-.33,1.062-.476.784-.33,1.502-.579,1.839-.718,0,0,.205.212.498.242Z" fill="#101820"/>
            <path d="M112.945,66.098c-.491.513-.93.388-2.044.286-.821-.081-1.583-.747-2.41-1.802-.029-.037-.059-.073-.095-.11.615,2.198.887,5.114.564,5.107-2.213-.015.198-3.912-2.821-3.934h-3.978c-.513,0-2.308-1.846-7.766-.469-.894.22,1.487-.923,4.066-2.103.366-.168.733-.33,1.099-.498,2.117-.96,4.066-1.81,4.132-1.81l1.971-1.055c-.205.755-.769,2.323,1.289,2.337.088,0,.176.029.264.081.388-.051,1.033.359,1.583.63.396.198.725.264,1.326.667.74.506,1.487,1.048,2.22,1.458.227.19.322.139.806.681.484.542-.022.337-.205.535Z" fill="#101820"/>
            <path d="M81.543,72.877l1.498-.538c-.052,1.521-1.727,2.55-2.3,3.194h-.703c-.235-.237-.266-.096-.266-.632,0-.405.607-2.2,1.33-2.185l.441.161Z" fill="#101820"/>
            <path d="M70.627,68.468c.434-.502,1.055-1.206,1.826-2.024.298-.316,2.415-2.555,4.561-4.38,3.246-2.76,6.334-4.384,9.997-6.31,4.352-2.288,6.013-3.02,8.77-3.651.803-.184,2.938-.604,3.4-.605-3.549.996-2.6,1.384-3.099,1.864-.428.412-1.125,1.16-.806,1.385,1.383.975,7.083.411,6.672,1.171-.272.504-3.075.824-4.728,1.294-1.269.361-1.439-2.157-6.686-.365-1.806.617-4.199.939-9.235,3.577-1.107.58-1.871.985-2.809,1.739-1.177.946-1.768,1.748-1.904,1.938-.524.727-2.383,2.587-1.847,3.385.781,1.165,1.009,1.876,1.657,2.527.417.419.78-.329,1.17-.127.774.401.941.036.942.521.002,1.015,1.739,1.714,1.591,1.934-.269.401-.899,2.6-1.341,2.443-2.276-.807-1.659-3.035-6.456-3.976-1.301-.255-4.437,1.088-7.062,6.155.718-4.182,3.883-6.671,5.388-8.494Z" fill="#101820"/>
            <path d="M94.624,103.286c.203-.558.741-.912.925-.912.329,0,.329.14.517.159v.49c-.274.295-.452.593-.781.593-.332,0-.509-.159-.661-.33h0Z" fill="#101820"/>
            <path d="M157.497,102.562c-.051.835-.308.249-.637.242-.542-.015-.85-.205-1.224-.608.095,3.788.242,7.517.249,8.653,0,.051-.066.051-.073.007-.234-1.355-1.246-6.403-3.436-7.774v-.733c-.007-.535.264-2.638.667-3.817.081-.22-5.707-3.18-4.579-4.374.264-.286.857-13.723,1.128-14.001.337-.359,2.051,5.048,3.143,5.524.308.139-1.385,4.081-.894,4.792,1.451,2.132,2.586,2.887,3.209,4.279.549,0,.791,1.114,1.092,1.942.176.491.403.821.571,1.648.205,1.018.388,2.066.674,3.011.029.344.154.381.11,1.209Z" fill="#101820"/>
            <path d="M156.597,94.569c.622-.76,1.723,1.318,2.325,2.159.301.415.608.664.995,1.407.476.915.939,1.872,1.464,2.694.123.319.253.314.433,1.128s-.229.324-.545.414c-.823.235-1.217-.136-2.324-.863-.819-.538-1.228-1.629-1.455-3.146-.133-.885-1.166-3.46-.894-3.793Z" fill="#101820"/>
            <g>
              <path d="M106.439,57.416c-.762,1.641-2.33,1.363-3.136,1.736l-1.407.886c-.447.066-2.183.476-2.674.63-.564.168-5.781,3.216-6.521,3.128-.169-.022-.293-.146-.374-.337-.447.784-.908,1.714-1.627,2.213-.718.491-1.956.725-3.194.967-.256-.469-.667-2.249-.667-3.553,0-.366.212-.696.535-.865,1.744-.901,2.894-.066,6.015-1.524.535-.887,1.216-1.524,1.949-1.714,1.414-.366,3.282-.85,4.323-1.194.015,0,.029-.007.037-.015.3-.103.527-.183.652-.264.015,0,.029-.007.037-.015.469-.3,1.238-1.084,1.583-.974,1.656.549,3.216-.938,3.575-.901.359.044.608,1.458.894,1.795Z" fill="#101820"/>
              <path d="M100.35,57.511c-.125.081-.352.161-.652.264.315-.125.549-.22.652-.264Z" fill="#101820"/>
              <path d="M84.737,65.644c-.924.059-5.486.256-5.433,1.526.064,1.528.433,3.839,1.535,4.526.213.133,1.144-2.223,1.376-2.114,1.152.538,1.058,2.436,1.376,2.308.714-.287.341-3.954.738-4.192.161-.12.349-.225.552-.32-.166-.521-.226-1.141-.144-1.733Z" fill="#101820"/>
            </g>
            <path d="M76.484,68.815c-.18-.23-.567-.794-.61-1.591-.049-.929.401-1.609.526-1.793.638-.935,1.369-.841,1.968-1.822.142-.232.235-.458.298-.65.069-.211.22-.384.426-.466.692-.274,1.383-.548,2.075-.821.693-.53,1.386-1.06,2.078-1.591,1.552-.501,3.104-1.003,4.655-1.504.869-.407,2.094-.851,3.602-1.012.764-.082,3.178.287,3.773.334-1.358.656-4.438.948-5.796,1.604-.727.031-1.848.174-2.965.752-.779.403-1.181.823-1.302.954-.343.373-.56.745-.693,1.012-.161.705-.152,1.233-.111,1.591.024.21.25.564.028.578-1.511.098-2.206.101-2.494-.289-.181-.245-.376-.412-.526-.521-.595.916-1.164,1.223-1.58,1.33-.339.088-.838.111-1.164.521-.04.051-.02.034-.277.463-.362.603-.406.642-.443.781-.084.316.455.094.558.494.088.341.615,1.402.558,2.064-.49.241-1.846.353-2.335.594-.083-.337-.166-.675-.249-1.012Z" fill="#101820"/>
            <path d="M161.993,100.415c-.563-1.876-.904-3.29-1.534-4.174-.727-1.021-2.141-2.705-2.143-2.707h0s-.058-.06-.173-.18c-1.066-.714-2.132-1.428-3.198-2.142-.438-1.242-.876-2.485-1.314-3.728-.039-.112.147-.18.225-.083l2.303,2.879c1.507,1.149,3.014,2.298,4.521,3.447l2.019,5.875-.706.814Z" fill="#101820"/>
            <path d="M164.348,95.148c-1.877-1.892-8.154-7.34-9.968-9.181-.104-.106-.008-.277.139-.257,4.962.65,6.594-2.435,6.721-2.509.13-.076-1.26,4.01.683,6.991.846,1.624,1.691,3.248,2.537,4.872.038.072-.055.143-.112.085Z" fill="#101820"/>
            <path d="M98.529,66.032c-.663.445-4.844.744-5.437,1.292-.386.071-.758-1.932-1.136-1.649-5.376,2.263-7.908,2.932-6.405,5.069,1.957-.491,4.793-2.617,5.028-2.805.359-.264,2.121,3.395,2.274,3.259.287-.247,1.424-1.192,3.902-1.991,2.652-.855,9.685,1.607,9.685,1.219,0-.539-1.594-3.03-7.911-4.393Z" fill="#101820"/>
            <path d="M165.161,92.984c-.506.077-.679-3.32-2.362-5.635-.194-.267-.61-.797-.675-1.565-.052-.617.14-1.184.375-1.878.223-.661.339-.766.525-1.33.234-.709.506-1.78.506-1.78,0,0,.121,2.686.356,3.423.135.421.311.972.675,1.643.531.981.852,1.091,1.087,1.761.165.471.151.826,0,2.23-.223,2.071-.338,3.108-.487,3.13Z" fill="#101820"/>
            <path d="M144.172,86.87c-1.867-1.166-4.444-1.56-4.735-1.639-.502-.137-.848-1.365,4.681-1.755.269-.019.538.071.738.251.776.698,1.774,1.637,2.647,2.441.259.238.679.079.715-.271.152-1.454.259-2.927.256-4.236-.001-.476-.328-.887-.793-.987-2.688-.575-9.347-2.18-7.511-3.35,2.435.94,4.986,1.252,7.454,2.013.338.104.655-.198.566-.54-.076-.293-.169-.553-.283-.77-1.033-1.956-7.609-3.816-9.557-4.369-.321-.091-.662.045-.828.334-.344.598-.682,1.291-1.214,1.984-2.877,3.751-.911,5.009-.784,6.941.054.749,3.369,4.605,4.115,4.776,4.238.97,3.4,7.818,5.978,7.818.515,0,.341-.572.57-.82.007-.688-.166-.763-.166-1.298l-1.624-3.952c0-.535,2.836,3.836,2.862,3.605.041-.376.12-.925.218-1.588.029-.199-.016-.403-.139-.562-1.018-1.325-2.65-2.95-3.166-4.028Z" fill="#101820"/>
            <path d="M91.162,96.785c-.08-.227.708-.539,2.011-1.588.956-.77.958-.945,1.482-1.165.491-.206,1.033-.208,2.117-.212,1.478-.005,1.902.184,2.064.265.559.277,1.102.787,1.006,1.006-.07.159-.447.09-1.535,0-2.194-.181-2.622-.06-2.805,0-.333.109-.716.355-1.482.847-.752.483-1.046.757-1.641.9-.477.114-1.147.145-1.217-.053Z" fill="#101820"/>
            <path d="M79.67,78.508c-.241-.325,1.791-1.793,2.493-2.79.29-.412.451-.637.741-.9.484-.438.689-.402.9-.741.255-.41.06-.632.265-1.27.1-.312.253-.789.635-1.059.583-.41,1.076.101,2.17-.159.331-.079.231-.113,1.376-.635,1.585-.723,1.827-.682,1.959-.582.247.187.284.713.106,1.112-.279.624-.978.688-3.229,1.535-1.029.387-1.125.465-1.217.582-.595.756.088,1.722-.582,2.753-.213.327-.459.502-.794.741-.764.544-1.503.675-2.223.794-.691.114-2.472.792-2.599.62Z" fill="#101820"/>
            <path d="M86.133,78.508c-.532-.312,1.559-3.651,2.647-4.749.73-.737,1.777-.964,2.7-1.165,1.106-.24,1.283-.039,2.011-.371.823-.374.957-.794,1.853-1.112.587-.208,1.418-.342,1.535-.106.109.221-.501.579-1.376,1.535-1.319,1.44-1.196,2.006-1.959,2.276-.968.343-1.504-.45-2.382,0-.576.295-.473.702-1.27,1.429-.12.11-3.264,2.551-3.758,2.261Z" fill="#101820"/>
            <path d="M106.336,139.129c-.125.579-.242.923-.44,1.194-.403.125-.696.264-.982.418-.242.125-.432.315-.498.271s-.073-.278.176-.894c.286-.725.366-.733.33-.755-.095-.059-.806,1.018-1.304,1.67-.315.403-.608.945-.821,1.245-.344.484-1.443,1.59-2.095,2.447l2.213-5.297c.242-.528.535-1.341.557-2.345.029-1.077-.974-1.099-1.136-1.898-.037-.198-.081-.396-.117-.608.015,1.209-.007,2.227-.073,2.682-.161,1.165-1.48,1.546-1.487,1.656-.059,1.246-.015,1.722-.117,3.099-.095,1.26-.205,1.854-.366,2.432-.337,1.209-.725,1.67-.894,1.846-.432.469-1.062.879-1.392,1.004-2.762,1.194-2.777,1.172-3.868,1.429,3.751-2.447,5.165-4.88,5.004-5.92-.117-.725-.667-1.429-.549-2.733.059-.674.249-.96.667-2.008.901-2.257-1.158-1.465-.52-2.85.33-.711,1.927-1.619,3.07-5.649.051-.183.103-.381.154-.579.227.037,1.7,2.843,2.139,4.997.183.894,2.161,1.326,2.345,1.927.711,2.381.264,2.103.007,3.216Z" fill="#101820"/>
            <path d="M88.722,149.07c.354-.396,1.231-.689,1.245-.907.025-.392,1.07-.369.578-1.426-.262-.562-1.367-.729-1.464-1.045-.107-.345-2.111-3.4-2.125-4.231-.009-.529-4.001-.254-3.2-2.424.084-.227,3.876.598,4.107.64.455.083,2.764,1.971,2.946,2.138.172.157.305.279.411.498.174.358.082.573.208.662.217.154.772-.283,1.17-.792.476-.608.363-.853.717-1.411.689-1.086,1.573-.876,2.124-1.888.257-.471.307-.962.312-1.292.542-.656,1.276-.797,1.819-1.453-.16,1.688-.716,2.409-1.032,3.242-.343.907-.055,2.83-.011,3.74.043.886-1.063,1.023-1.653,1.643-.594.623.803.818.205,1.902-.427.773-2.409,2.451-3.846,2.56-1.497.114-2.12-.083-2.51-.157Z" fill="#101820"/>
            <path d="M101.845,128.989c-.051.198-.103.396-.154.579.007-.374.059-.593.154-.579Z" fill="#101820"/>
            <g>
              <path d="M74.785,142.719c-1.257-2.441-1.238-5.58-.696-7.707.194-.76.48-1.675.671-2.13-.154-.293-.634-1.339-.329-2.331.721-2.34,2.129-2.512,2.793-2.407,0,0-1.753.262-2.19,2.036-.198.801.034,1.8.154,2.149.361,1.055.599,1.118,1.184,1.89.765,1.009,1.252,1.246.846,1.921-.279.464-1.186,1.936-1.188,2.385-.003.489,1.537,3.293,1.46,3.733-.08.455,1.02,3.513,1.098,3.903.139.7-2.534-.981-3.803-3.444Z" fill="#101820"/>
              <path d="M78.829,141.62c-.474-1.04-2.122-2.093-2.112-2.638.03-1.596,1.537-1.37,2.533-2.056.428-.295.589,4.863.79,5.338.389.92.066.796-.032,1.534-.179,1.346,1.266,3.898,1.797,3.898-.24,0-1.02-.309-1.549-.56-.426-.202-.719-.604-.783-1.071-.188-1.377-.576-4.191-.643-4.445Z" fill="#101820"/>
              <path d="M87.067,148.096c-.469.256-1.385,1.421-4.249-.733-.359-.784-1.934-1.832-1.568-2.169,2.725-2.498-.352-3.671-.491-5.568-.154-1.033.549-1.561.315-2.235-.11-.315-.454-.579-1.136-1.092-.703-.528-1.048-.689-1.421-.952-1.407-.96-2.051-2.432-1.978-2.491.051-.037.52.703,1.619,1.517.425.315.857.571,1.289.835.703.425.843.462,1.37.806.711.469,1.077.711,1.253,1.092.205.432.073.703.051,1.377-.015.513.044.96.125,1.333,1.026,2.257,4.169,3.136,4.205,3.509.161,1.612-3.011-.974-2.945,1.956.015.44,4.462,2.301,3.561,2.813Z" fill="#101820"/>
            </g>
          </g>
        </g>
      </g>
      <g>
        <path d="M178.283,26.754l-.081-.44-.388-.205c-.256-.139-26.119-13.789-70.174-13.789h-.278c-44.069,0-69.925,13.649-70.181,13.789l-.388.205-.081.44c-.11.63-11.217,63.507,3.817,108.748,11.525,34.655,60.92,63.719,66.518,66.913l.454.264.454-.264c5.597-3.194,54.993-32.259,66.51-66.913,15.041-45.242,3.934-108.118,3.817-108.748ZM152.511,22.114l2.675.754.691,8.148,4.873-6.58,2.689.758-6.944,9.171-2.154,7.647-2.86-.806,2.154-7.647-1.124-11.444ZM139.746,19.423l9.344,1.8-.533,2.769-3.213-.619-2.997,15.561-2.917-.562,2.997-15.561-3.214-.619.533-2.769ZM132.586,18.455l2.946.385-2.416,18.509-2.946-.385,2.416-18.509ZM116.754,23.989l.223-2.949c.094-.757.363-1.424.807-1.977.366-.482.875-.926,1.63-1.252.757-.349,1.792-.501,3.101-.402,1.308.099,2.308.405,3.005.864.698.436,1.134.952,1.423,1.483.356.613.522,1.313.5,2.076l-.106,1.404-2.976-.225.107-1.417c.037-.526-.117-.92-.452-1.194-.374-.306-1.033-.529-1.684-.578-.651-.049-1.335.071-1.751.318-.369.218-.579.581-.624,1.099l-.414,5.444-.406,5.37c-.033.519.12.91.451,1.181.375.306,1.033.529,1.684.578.651.049,1.335-.071,1.752-.318.372-.22.584-.587.627-1.113l.112-1.481,2.976.225-.074.974-.038.496c-.094.757-.363,1.424-.807,1.977-.366.482-.875.926-1.63,1.252-.757.349-1.792.501-3.101.401-1.308-.099-2.308-.405-3.005-.864-.698-.436-1.134-.952-1.423-1.483-.356-.613-.522-1.313-.5-2.076l.592-7.814ZM97.811,17.102l.695,16.112,5.598-.241.109,2.537-8.566.369-.804-18.649,2.968-.128ZM84.782,18.163l1.794,16.027,5.568-.623.282,2.523-8.521.954-2.076-18.55,2.952-.33ZM69.37,20.639l2.902,14.546c.105.524.361.865.76,1.04.443.194,1.137.231,1.777.103.64-.128,1.267-.428,1.601-.778.301-.315.407-.728.302-1.252l-2.906-14.545,2.927-.583,2.905,14.544c.114.754.034,1.47-.245,2.121-.223.563-.593,1.128-1.233,1.645-.635.54-1.591.965-2.878,1.222s-2.332.232-3.126-.023c-.79-.232-1.348-.611-1.77-1.045-.508-.494-.856-1.124-1.041-1.864l-2.905-14.544,2.928-.586ZM54.856,24.208l2.018,7.452,4.292-1.163-2.018-7.452,2.867-.777,4.88,18.017-2.867.777-2.125-7.844-4.292,1.163,2.125,7.844-2.867.777-4.88-18.017,2.868-.777ZM176.796,81.938l-.037,2.249c-.015.835-.037,1.67-.066,2.513l-.029,1.011c-.051,1.546-.117,3.106-.205,4.674l-.278,4.337c-.059.747-.117,1.502-.183,2.293l-.11,1.282c-.249,2.733-.549,5.422-.886,7.986l-.264,1.832c-.081.593-.176,1.194-.271,1.802l-.051.344c-.066.425-.132.843-.198,1.267l-.234,1.326c-.117.703-.249,1.399-.381,2.095l-.095.52c-.073.396-.147.791-.227,1.187-.19.945-.396,1.89-.601,2.828l-.044.19c-.154.681-.3,1.363-.469,2.037-.227.967-.476,1.927-.733,2.901-.278,1.055-.571,2.103-.879,3.143l-.183.615c-.352,1.194-.659,2.176-.96,3.084l-.022.066c-4.506,13.547-15.774,27.826-33.482,42.421-.425.359-.857.703-1.297,1.062-.564.454-1.128.908-1.685,1.348l-.425.337c-1.128.887-2.242,1.751-3.334,2.579l-.41.315c-1.348,1.011-2.689,2-4.015,2.953-1.194.857-2.352,1.678-3.465,2.447l-6.821,4.557c-.484.308-.952.608-1.407.894-.366.234-.733.462-1.077.674l-4.469,2.696-5.239-3.172c-.542-.344-1.114-.711-1.714-1.092l-6.821-4.55c-1.114-.777-2.279-1.597-3.487-2.469-1.311-.938-2.652-1.934-3.993-2.945l-.403-.3c-1.099-.835-2.22-1.7-3.348-2.586l-.418-.33c-.557-.447-1.121-.894-1.7-1.37-.432-.344-.857-.689-1.282-1.048-4.161-3.429-8.037-6.909-11.525-10.352-1.275-1.267-2.52-2.542-3.685-3.788-.403-.425-.806-.857-1.202-1.297-.447-.484-.886-.982-1.326-1.473-3.89-4.411-7.209-8.828-9.847-13.137-.41-.659-.813-1.326-1.194-2-1.993-3.495-3.575-6.99-4.704-10.374-.308-.923-.623-1.927-.989-3.15l-.176-.615c-.308-1.04-.601-2.088-.894-3.194-.205-.769-.403-1.553-.593-2.337l-.132-.513c-.11-.491-.22-.974-.33-1.465l-.22-.938c-.154-.689-.293-1.385-.44-2.088l-.117-.557v-.015c-.066-.322-.125-.645-.183-.96l-.22-1.143c-.125-.674-.249-1.355-.366-2.066l-.168-.952c-.066-.425-.132-.843-.198-1.267l-.059-.352-.007-.081c-.125-.777-.234-1.546-.344-2.323l-.022-.132-.139-1.018c-.396-2.945-.74-6.074-1.011-9.341l-.029-.337c-.059-.703-.117-1.392-.168-2.095l-.081-1.187c-.022-.315-.044-.63-.059-.938l-.103-1.641c-.081-1.465-.147-2.931-.205-4.389l-.022-.718c-.044-1.275-.073-2.542-.103-3.832l-.022-1.209c-.051-3.451-.029-7.048.066-10.697v-.169c.037-1.436.088-2.85.139-4.242l.139-3.026c.117-2.381.264-4.77.432-7.092l.007-.11.117-1.568c6.748-3.986,29.819-15.642,68.386-15.642s61.646,11.664,68.386,15.642c.037.491.073.989.11,1.495l.007.081c.183,2.528.344,5.129.469,7.737l.029.674c.022.527.044,1.062.066,1.597l.007.11.029.681c.044,1.238.081,2.498.117,3.751v.125c.081,3.348.11,6.689.073,9.92Z" fill="#101820"/>
        <g>
          <path d="M90.601,163.748v-1.545c1.091-.202,1.746-.716,2.207-1.165.242-.268.436-.559.582-.851h1.576v16.456h-2.619v-12.896h-1.746Z" fill="#101820"/>
          <path d="M97.676,163.672c0-.372.048-1.249.509-2.037.46-.767,1.285-1.446,2.91-1.446,1.576,0,2.449.679,2.911,1.446.46.789.509,1.665.509,2.037v9.16c0,.591-.024,1.534-.485,2.322-.461.811-1.285,1.491-2.935,1.491s-2.474-.679-2.934-1.491c-.46-.789-.485-1.731-.485-2.322v-1.008h2.619c0,1.074.024,1.775.121,2.191.097.416.291.57.679.57.316,0,.534-.132.655-.417.098-.284.146-.723.146-1.336v-3.024c-.46.241-.849.394-1.31.394-1.358,0-2.086-.636-2.474-1.359s-.436-1.599-.436-2.038v-3.134ZM101.895,162.971c0-.197-.194-.723-.8-.723-.557,0-.8.526-.8.723v4.668c0,.197.242.723.8.723s.776-.416.8-.657v-4.733Z" fill="#101820"/>
          <path d="M113.996,173.161c-.024.657-.17,1.249-.437,1.753-.218.438-.558.854-1.043,1.183-.485.351-1.14.548-2.013.548s-1.552-.198-2.037-.548c-.486-.329-.8-.745-1.019-1.183-.266-.504-.412-1.096-.436-1.753v-9.489c.024-.635.17-1.227.436-1.73.219-.439.534-.877,1.019-1.206.485-.329,1.164-.547,2.037-.547s1.528.219,2.013.547.825.767,1.043,1.206c.267.504.412,1.096.437,1.73v9.489ZM111.377,163.672c0-.438-.097-.745-.339-1.007-.121-.11-.316-.176-.534-.176-.461,0-.679.307-.776.592-.073.175-.097.372-.097.591v9.489c0,.46.121.767.364,1.007.121.11.291.176.509.176.46,0,.679-.263.776-.592.072-.153.097-.351.097-.591v-9.489Z" fill="#101820"/>
          <path d="M120.369,173.062h-4.05v-2.127l3.831-10.747h2.619v10.747h1.212v2.127h-1.212v3.582h-2.401v-3.582ZM118.55,170.935h1.819v-5.642h-.145l-.146.493-1.528,5.149Z" fill="#101820"/>
        </g>
      </g>
    </g>
    <path d="M88.973,115.34c1.113.032,1.322-.184,1.61-.21v-.979c-.217-.251-.497-.283-.744-.274-.235.237-.648.451-.866.696v.767Z" fill="#101820"/>
  </g>
</svg>