<?xml version="1.0" encoding="UTF-8"?>
<svg id="Layer_1" xmlns="http://www.w3.org/2000/svg" version="1.1" viewBox="0 0 76.745 96.292">
  <!-- Generator: Adobe Illustrator 30.5.1, SVG Export Plug-In . SVG Version: 2.1.4 Build 3)  -->
  <path d="M64.906,0v3.441h-4.4V0h-11.841v3.441h-4.399V0h-11.784v3.441h-4.399V0h-11.841v3.441h-4.4V0H0v20.633h3.503c1.595,0,2.892,1.297,2.892,2.89v58.988l31.978,13.78,31.978-13.78V23.523c0-1.593,1.297-2.89,2.892-2.89h3.503V0h-11.84Z" fill="#ed1c2e"/>
  <path d="M38.373,91.359l21.438-9.004H16.935l21.438,9.004ZM11.65,80.441h53.446v-7.976H11.65v7.976ZM11.65,70.943h53.446v-8.557H11.65v8.557ZM11.65,60.865h53.446V18.907H11.65v41.958ZM7.744,8.034v9.351h61.258v-9.351H7.744Z" fill="#004694"/>
  <path d="M66.178,1.273v3.441h-6.946V1.273h-9.295v3.441h-6.945V1.273h-9.238v3.441h-6.945V1.273h-9.295v3.441h-6.946V1.273H1.273v18.087h2.23c2.297,0,4.165,1.868,4.165,4.163v58.151l30.705,13.232,30.705-13.232V23.523c0-2.295,1.868-4.163,4.165-4.163h2.23V1.273h-9.294ZM74.267,18.154h-1.024c-2.967,0-5.371,2.404-5.371,5.369v57.357l-29.499,12.712-29.499-12.712V23.523c0-2.965-2.404-5.369-5.371-5.369h-1.024V2.479h6.882v3.441h9.358v-3.441h6.883v3.441h9.357v-3.441h6.826v3.441h9.357v-3.441h6.883v3.441h9.358v-3.441h6.882v15.675ZM11.65,72.465v7.977h53.446v-7.977H11.65ZM64.161,79.503H12.585v-6.101h51.576v6.101ZM15.8,76.747h1.447v-.603h-1.447v-.733h1.447v-.603h-2.267v3.289h.82v-1.351ZM19.956,78.141c1.182,0,1.881-.844,1.881-1.688,0-.791-.641-1.688-1.881-1.688s-1.886.892-1.886,1.688c0,.839.68,1.688,1.886,1.688ZM19.956,75.45c.622,0,1.037.4,1.037,1.003s-.415,1.003-1.037,1.003c-.627,0-1.042-.4-1.042-1.003s.415-1.003,1.042-1.003ZM24.525,78.141c1.182,0,1.881-.844,1.881-1.688,0-.791-.641-1.688-1.881-1.688s-1.886.892-1.886,1.688c0,.839.68,1.688,1.886,1.688ZM24.525,75.45c.622,0,1.037.4,1.037,1.003s-.415,1.003-1.037,1.003c-.627,0-1.042-.4-1.042-1.003s.415-1.003,1.042-1.003ZM33.77,77.133c0-.386-.231-.724-.699-.844.275-.135.449-.381.449-.656,0-.367-.314-.825-1.09-.825h-1.423v3.289h1.601c.96,0,1.162-.588,1.162-.965ZM31.827,75.411h.429c.299,0,.42.178.42.347,0,.174-.121.357-.42.357h-.429v-.704ZM31.827,77.495v-.777h.574c.289,0,.502.13.502.371,0,.285-.159.405-.613.405h-.463ZM53.877,77.495h-1.688v-2.686h-.82v3.289h2.508v-.603ZM28.175,78.098h.82v-2.687h1.191v-.603h-3.203v.603h1.191v2.687ZM61.765,77.133c0-.386-.232-.724-.699-.844.275-.135.449-.381.449-.656,0-.367-.314-.825-1.09-.825h-1.423v3.289h1.601c.96,0,1.162-.588,1.162-.965ZM59.821,75.411h.429c.299,0,.42.178.42.347,0,.174-.121.357-.42.357h-.429v-.704ZM59.821,77.495v-.777h.574c.289,0,.502.13.502.371,0,.285-.159.405-.613.405h-.463ZM56.222,78.141c.902,0,1.645-.376,1.645-1.466v-1.867h-.82v1.833c0,.588-.4.815-.834.815-.473,0-.815-.284-.815-.757v-1.891h-.82v1.871c0,1.018.69,1.461,1.645,1.461ZM49.002,78.141c.487,0,.834-.092,1.293-.328v-.719c-.473.227-.762.362-1.191.362-.685,0-1.172-.42-1.172-1.008,0-.584.492-.998,1.191-.998.405,0,.772.135,1.133.338v-.733c-.323-.193-.733-.289-1.191-.289-1.259,0-1.978.82-1.978,1.698,0,.849.637,1.678,1.915,1.678ZM35.446,77.447h1.471l.27.651h.883l-1.461-3.289h-.95l-1.326,3.289h.868l.246-.651ZM36.146,75.595l.531,1.278h-1.013l.482-1.278ZM44.656,77.495h-1.688v-2.686h-.82v3.289h2.508v-.603ZM41.346,77.495h-1.688v-2.686h-.82v3.289h2.508v-.603ZM58.414,68.296c-1.496,0-2.197-.319-3.008-.688-.857-.39-1.829-.832-3.674-.832s-2.816.442-3.673.832c-.811.369-1.512.688-3.007.688s-2.196-.319-3.007-.688c-.857-.39-1.829-.832-3.673-.832s-2.816.442-3.673.832c-.811.369-1.511.688-3.007.688s-2.196-.319-3.007-.688c-.857-.39-1.829-.832-3.673-.832s-2.816.442-3.673.832c-.811.369-1.512.688-3.007.688s-2.196-.319-3.007-.688c-.857-.39-1.829-.832-3.673-.832v1.608c1.496,0,2.196.319,3.007.688.857.39,1.829.832,3.673.832s2.816-.442,3.673-.832c.811-.369,1.512-.688,3.007-.688s2.196.319,3.007.688c.857.39,1.829.832,3.673.832s2.816-.442,3.673-.832c.811-.369,1.511-.688,3.007-.688s2.196.319,3.007.688c.857.39,1.829.832,3.673.832s2.816-.442,3.673-.832c.811-.369,1.512-.688,3.007-.688s2.197.319,3.008.688c.857.39,1.829.832,3.674.832s2.816-.442,3.674-.832c.811-.369,1.512-.688,3.008-.688v-1.608c-1.845,0-2.816.442-3.674.832-.811.369-1.512.688-3.008.688ZM58.414,64.945c-1.496,0-2.197-.319-3.008-.688-.857-.39-1.829-.832-3.674-.832s-2.816.442-3.673.832c-.811.369-1.512.688-3.007.688s-2.196-.319-3.007-.688c-.857-.39-1.829-.832-3.673-.832s-2.816.442-3.673.832c-.811.369-1.511.688-3.007.688s-2.196-.319-3.007-.688c-.857-.39-1.829-.832-3.673-.832s-2.816.442-3.673.832c-.811.369-1.512.688-3.007.688s-2.196-.319-3.007-.688c-.857-.39-1.829-.832-3.673-.832v1.608c1.496,0,2.196.319,3.007.688.857.39,1.829.832,3.673.832s2.816-.442,3.673-.832c.811-.369,1.512-.688,3.007-.688s2.196.319,3.007.688c.857.39,1.829.832,3.673.832s2.816-.442,3.673-.832c.811-.369,1.511-.688,3.007-.688s2.196.319,3.007.688c.857.39,1.829.832,3.673.832s2.816-.442,3.673-.832c.811-.369,1.512-.688,3.007-.688s2.197.319,3.008.688c.857.39,1.829.832,3.674.832s2.816-.442,3.674-.832c.811-.369,1.512-.688,3.008-.688v-1.608c-1.845,0-2.816.442-3.674.832-.811.369-1.512.688-3.008.688ZM11.65,60.865h53.446V18.907H11.65v41.958ZM12.588,19.845h51.57v40.082H12.588V19.845ZM23.884,53.718c-.148-.084-.435-.207-.605-.112-.083.097-.35.398-.673.656-.218.174-.284.472-.159.721.076.152.152.341.239.578.091.248.103.524.009.771-.104.274-.308.482-.569.588-.057.277-.099.52-.124.721-.049.393-.249.742-.548.956-.135.096-.257.222-.361.346-.114.137-.03.345.147.364.152.017.307.025.464.025.266,0,.526-.025.779-.071.17-.131.561-.478.9-1.13.41-.787.826-2.191.499-4.413ZM24.828,57.413c-.349-.026-.694.083-.826.131-.239.715-.565,1.212-.847,1.539.721-.256,1.355-.699,1.844-1.269.129-.151.027-.387-.171-.401ZM20.318,59.104c.117.04.247-.001.316-.103-.133-.122-.829-.73-1.66-.876,0,0,.694.759,1.344.979ZM24.815,53.363c-.206.077-.416.183-.597.325.189,1.299.139,2.337-.03,3.158-.029.142.089.27.233.25.165-.023.349-.031.535-.005.171.024.33-.088.352-.259.099-.763.203-2.182-.183-3.322-.043-.128-.184-.194-.31-.146ZM25.376,53.208h-.003c.4,1.011.403,2.242.33,3.117-.006.074.1.095.123.025.141-.426.218-.882.218-1.355,0-.56-.107-1.094-.301-1.586-.058-.146-.212-.231-.367-.201ZM18.369,52.79c-.014-.024-.027-.048-.039-.074-.057-.122-.224-.142-.296-.028-.104.165-.198.338-.279.517-.085.186-.056.406.073.565,1.23,1.518,3.749,2.664,4.162,2.845.194-.075.342-.235.409-.445.05-.158.035-.33-.021-.485-.354-.965-.415-.976-1.324-1.128-.749-.126-.869-.337-1.003-.672-.054-.135-.115-.288-.264-.473-.244-.305-.56-.341-.839-.373-.237-.027-.461-.053-.578-.249ZM23.992,51.31c-.191-.119-.392-.224-.601-.312-.238-.101-.506-.105-.751-.025-.762.248-2.095.784-2.746,1.66-.099.133-.088.323.032.437.042.04.082.084.122.133.051.063.093.123.128.18.024.038.075.044.109.014,1.132-1.012,2.694-1.489,3.64-1.698.186-.041.229-.288.067-.389ZM20.721,54.137c.094.033.219.062.386.09.225.038.406.072.559.113.004,0,.008,0,.013,0,.324.064.991-.528,1.362-.969l.034-.031c.324-.219.748-.038.949.073.312-.242.687-.385,1.007-.47.219-.058.309-.322.174-.505l-.007-.01c-.253-.343-.684-.509-1.101-.419-.868.186-2.38.622-3.48,1.545-.201.168-.143.497.104.584ZM18.65,55.128c-.131.169-.327.5-.377,1.014-.004.042.012.083.044.11.749.645,1.894,1.319,3.368,1.249.025-.177.06-.381.106-.607-.427-.189-1.829-.842-3.035-1.778-.033-.025-.079-.021-.105.012ZM21.923,50.662c-.072-.004-.144-.005-.217-.005-1.101,0-2.107.413-2.872,1.091-.23.204-.33.531-.206.813.009.02.019.04.029.058.032.054.182.071.328.087.126.014.272.032.423.074.486-.949,1.648-1.568,2.547-1.921.102-.04.078-.192-.031-.197ZM17.98,55.833c.102-.495.322-.814.459-.973-.255-.216-.496-.445-.709-.685-.095-.107-.274-.06-.299.081-.042.241-.063.488-.063.74,0,.024,0,.047,0,.071.002.113.04.221.109.31.098.126.239.294.42.482.027.028.075.013.083-.025ZM21.614,57.839c-.049.001-.099.004-.147.004-1.559,0-2.736-.746-3.486-1.427-.004-.004-.009-.007-.012-.011-.102-.093-.196-.185-.282-.274-.062-.064-.169-.002-.144.084.114.387.28.751.491,1.085.172.178.483.405.998.495.885.155,1.603.754,1.805.936.12-.144.263-.291.424-.406.162-.116.284-.287.354-.486ZM57.443,39.687c-.016.473.173.95.407,1.355,1.104-1.341,1.698-2.63,1.903-3.838-.1.076-.202.151-.301.225-.519.386-1.009.752-1.384,1.065-.399.335-.61.736-.624,1.193ZM58.107,30.73c-.456.189-.817.284-1.091.331-.086-.076-.193-.172-.331-.296-1.725-1.256-3.864-1.972-5.645-1.94-1.176.02-2.361.159-3.468.556-10.028,3.594-12.239.634-12.802-.109-.689-.908-1.463-1.751-2.348-2.472l.213-.411c.249.084.517-.117.748-.425.267-.355.382-.717.109-.929-.28-.204-.595.009-.862.364-.226.304-.344.612-.202.825l-.332.315c-.521-.406-1.04-.77-1.552-1.095l.182-.417c.255.068.508-.15.718-.473.241-.371.334-.74.047-.933-.292-.186-.594.048-.835.419-.208.318-.304.634-.149.837l-.319.346c-.559-.338-1.109-.63-1.651-.88l.109-.415c.263.029.48-.225.638-.576.182-.405.216-.783-.098-.93-.316-.138-.578.139-.76.544-.155.346-.204.673-.019.85l-.243.362c-.651-.281-1.286-.504-1.904-.678l.032-.431c.263-.019.431-.31.523-.682.106-.431.071-.809-.263-.898-.338-.079-.544.241-.65.673-.091.368-.079.698.135.839l-.172.395c-.699-.177-1.375-.291-2.018-.355l-.032-.422c.257-.059.381-.371.415-.754.04-.441-.052-.811-.395-.847-.344-.027-.501.32-.541.762-.035.378.027.702.26.809l-.111.417c-.74-.052-1.435-.042-2.077.011l-.106-.406c.243-.103.307-.433.272-.815-.04-.442-.197-.789-.541-.762-.344.035-.435.405-.395.847.033.378.153.686.401.749l-.034.426c-.789.088-1.486.237-2.074.401l-.185-.381c.218-.149.218-.484.11-.852-.125-.426-.344-.736-.678-.645-.331.102-.35.482-.225.909.107.363.283.643.539.658l.05.426c-.77.241-1.304.49-1.542.611-.086.044-.189.027-.259-.039-1.108-1.049-1.911-1.249-2.311-1.269-.15-.007-.264.138-.226.284.33,1.285.578,1.763.703,1.938.047.067.056.151.023.225-.319.686-.765,2.77-.303,4.56.496,1.92.173,4.296.539,5.452.338,1.068.407,1.628.417,1.707v.02c-.013,1.037.724,1.085,1.934,1.532,1.214.449,1.132-.276,1.132-.276.04-1.296.194-1.31.477-1.31.214,0,.398.82.473,1.213.027.135.168.216.299.172.507-.174,1.148-.914.712-1.38-.519-.553-.185-.886.087-1.13.272-.243.454-.122.584-.854.13-.732,1.391-2.287,1.529-2.384.023-.016.048-.025.074-.029.138-.021.249.106.243.245-.027.508.368,1.112.411,1.177.003.004.005.008.008.012,1.308,2.251.85,3.442.85,3.442-.588,1.568-.608,2.862-.319,3.918.807,2.299,3.251,3.725,3.836,3.961.013.005.025.012.036.021.004.001.007.004.011.008.066.046.103.122.098.205-.019.281.054.898.847,1.636.992.924,1.41,2.234,1.477,2.465.003.014.006.029.009.043.382,2.461,1.632,2.34,2.107,3.689.489,1.388.934,2.858.115,3.942-1.42,1.881-.682,1.836-.682,1.836,3.998.218,3.57-.452,3.781-1.036.184-.504.63-.915.749-1.018.019-.017.04-.028.063-.038,1.222-.496-1.763-4.482-2.042-4.82-.133-.159-.208-.665-.249-1.156-.044-.511-.217-.994-.442-1.454-.482-.98.328-3.373-.012-4.15-.059-.137.11-.269.257-.251.338.044,4.279,2.119,8.52-.22.17-.095.352-.173.529-.269.805-.433,1.684-.781,2.458-1.044.233-.079,1.401-.522,1.992-.758.08-.032.095-.137.029-.192-.169-.141-.31-.241-.526-.381-.148-.096-.301-.19-.461-.267-.112-.053-.057-.223.064-.197.405.087.798.304,1.142.504.935.578,1.652,1.424,2.512,2.1.58.493,1.181.984,1.784,1.473.493.098.87.117,1.1.2.71.256.835,1.17,2.677,1.817,1.844.646,1.067,2.527,1.067,2.527-1.19,3.115-.781,2.63-1.144,3.936-.288,1.034-1.672,2.34-2.236,2.839-.119.106-.098.299.044.37,1.506.765,3.33.348,3.8.221.071-.019.129-.074.153-.143.496-1.386.829-1.415,1.533-1.707.683-.283.145-1.533.087-1.664-.004-.008-.007-.016-.009-.024-1.193-2.368,2.506-7.848,1.667-8.36-2.499-1.524-3.477-2.922-3.748-3.618-1.249-.04-2.963-.271-4-1.148-.547-.462-.847-1.057-.894-1.767-.157-2.342,2.163-4.203,6.891-5.533.074-.02.139-.039.196-.055-.301-.986-.76-1.592-1.392-2.123.261-.083.966-.288,1.603-.288.363,0,.702.067.926.259.332.285.486.706.414,1.127-.096.548-.559,1.017-1.269,1.288-.066.025-.193.06-.386.115-4.556,1.28-6.792,3.026-6.649,5.187.042.616.301,1.132.776,1.534,1.335,1.128,3.998,1.105,4.95,1.057-.395-.452-1.116-1.414-1.084-2.409.019-.557.269-1.041.744-1.439.383-.322.878-.689,1.4-1.079,2.045-1.524,4.845-3.61,4.052-5.191-1.004-1.999-4.083-1.7-5.196-1.239ZM15.599,29.977c-.031-.166-.079-.437-.142-.734,0,0,.117-.297.511-.511,0,0,.736.411.395.901,0,0-.294.41-.426.593-.011.015-.295-.022-.338-.249ZM16.93,37.855c-1.304-.258-.793-.964-.793-.964.429.175.793.68.793.68v.283ZM14.417,24.724c-.165-.695-1.114-.638-1.114-.638.172,1.183,1.114,1.686,1.114,1.686.284-.182.165-.352,0-1.048ZM23.677,41.405c-2.203-.402-6.771-1.083-7.855-.039-1.443,1.388.271,4.071.784,5.409.515,1.337.788,1.407.373,3.316-.415,1.908.348,1.757.348,1.757,0,0,.531-.117,1.081-.478.295-.194.61-.355.935-.492.287-.121.603-.293.722-.505,0,0-.094-.745.192-1.12s.745-.716-.138-1.391c-.883-.674-1.215-3.448-.978-3.662.947-.854,4.967,3.294,8.395,1.384-.863-.434-3.119-1.912-3.859-4.179ZM52.399,47.737c-.344-.288-.44-.854-.449-1.343-1.065-.716-2.08-1.506-3.031-2.368-.263-.25-.519-.507-.782-.756-.09-.085-.223-.106-.336-.053-.499.232-1.452.711-1.452.711.427,1.498,1.053,3.33,1.631,3.613,0,0,1.578,1.604-.103,3.355-1.682,1.75-1.617,1.994-1.968,2.448-.351.456-.666.856-1.443,1.502-.776.646-1.79.963-1.746,1.454.044.49,3.453.339,3.787.269.335-.07.469-1.037.973-1.201.504-.162,1.507-.098,1.359-1.321-.147-1.223,1.8-3.215,2.23-3.59.43-.374,1.754-1.399,1.849-2.023,0,0,.162-.126-.517-.698ZM7.744,8.034v9.351h61.258v-9.351H7.744ZM68.064,16.448H8.682v-7.475h59.382v7.475ZM19.624,13.73c0,.252-.22.397-.63.397-.472,0-.85-.145-1.467-.554v.926c.428.22.8.416,1.549.416.957,0,1.65-.479,1.65-1.304,0-1.499-2.185-1.316-2.185-1.965,0-.214.246-.353.63-.353.365,0,.737.107,1.36.384v-.838c-.542-.233-.976-.334-1.455-.334-.995,0-1.637.491-1.637,1.234,0,1.543,2.185,1.285,2.185,1.99ZM23.473,14.914l1.329-2.802,1.335,2.802h.46l1.883-4.352h-1.134l-1.008,2.374-1.102-2.374h-.863l-1.102,2.374-1.014-2.374h-1.133l1.889,4.352h.46ZM62.328,12.105l2.374,2.752h.901v-4.295h-1.071v2.626l-2.292-2.626h-.982v4.295h1.071v-2.752ZM12.214,10.562h-1.071v4.295h1.071v-4.295ZM30.235,10.562h-1.071v4.295h1.071v-4.295ZM14.489,13.132h.85c.989,0,1.417-.693,1.417-1.297,0-.586-.441-1.272-1.423-1.272h-1.914v4.295h1.071v-1.726ZM14.489,11.35h.378c.579,0,.787.132.787.498,0,.321-.176.497-.667.497h-.498v-.995ZM33.697,14.914c.636,0,1.089-.12,1.688-.428v-.938c-.617.296-.995.472-1.555.472-.894,0-1.53-.548-1.53-1.316,0-.762.642-1.304,1.555-1.304.529,0,1.008.176,1.48.441v-.957c-.422-.252-.957-.378-1.555-.378-1.644,0-2.582,1.071-2.582,2.217,0,1.108.831,2.192,2.5,2.192ZM50.573,14.914c1.543,0,2.456-1.102,2.456-2.204,0-1.033-.837-2.204-2.456-2.204s-2.462,1.165-2.462,2.204c0,1.096.888,2.204,2.462,2.204ZM50.573,11.4c.812,0,1.354.523,1.354,1.31s-.542,1.31-1.354,1.31c-.819,0-1.36-.523-1.36-1.31s.542-1.31,1.36-1.31ZM55.58,14.914l1.329-2.802,1.335,2.802h.46l1.883-4.352h-1.134l-1.008,2.374-1.102-2.374h-.863l-1.102,2.374-1.014-2.374h-1.133l1.889,4.352h.46ZM37.525,13.119h2.141v1.738h1.071v-4.295h-1.071v1.726h-2.141v-1.726h-1.071v4.295h1.071v-1.738ZM45.076,14.857h1.071v-3.508h1.555v-.787h-4.181v.787h1.555v3.508Z" fill="#fff"/>
</svg>